<svg width="309" height="128" viewBox="0 0 309 128" fill="none" xmlns="http://www.w3.org/2000/svg">
<rect x="1.08789" y="8.7793" width="304" height="57" rx="4.5" stroke="#1E293B"/>
<g clip-path="url(#clip0_1216_7417)">
<mask id="mask0_1216_7417" style="mask-type:luminance" maskUnits="userSpaceOnUse" x="13" y="21" width="32" height="32">
<path d="M13.5879 21.7793H44.5879V52.7793H13.5879V21.7793Z" fill="white"/>
</mask>
<g mask="url(#mask0_1216_7417)">
<path d="M41.3671 21.7793H15.1983C14.3125 21.7793 13.5879 22.5174 13.5879 23.4195V26.3719C13.5879 27.274 14.3125 28.0121 15.1983 28.0121H41.2866C42.1723 28.0121 42.897 27.274 42.897 26.3719V23.4195C42.9775 22.5174 42.2528 21.7793 41.3671 21.7793ZM41.3671 38.2634H15.1983C14.3125 38.2634 13.5879 39.0015 13.5879 39.9036V42.856C13.5879 43.7581 14.3125 44.4962 15.1983 44.4962H41.2866C42.1723 44.4962 42.897 43.7581 42.897 42.856V39.9036C42.9775 39.0015 42.2528 38.2634 41.3671 38.2634ZM29.9333 46.5465H15.1983C14.3125 46.5465 13.5879 47.2846 13.5879 48.1867V51.1391C13.5879 52.0412 14.3125 52.7793 15.1983 52.7793H29.9333C30.8191 52.7793 31.5437 52.0412 31.5437 51.1391V48.1867C31.5437 47.2846 30.8191 46.5465 29.9333 46.5465ZM42.9775 30.0624H15.1983C14.3125 30.0624 13.5879 30.8005 13.5879 31.7025V34.655C13.5879 35.557 14.3125 36.2952 15.1983 36.2952H42.9775C43.8632 36.2952 44.5879 35.557 44.5879 34.655V31.7025C44.5879 30.8005 43.8632 30.0624 42.9775 30.0624Z" fill="#0BA4DB"/>
</g>
</g>
<g clip-path="url(#clip1_1216_7417)">
<path d="M70.0063 56.1957V53.6708C70.0063 52.7025 69.3813 52.0716 68.3553 52.0716C67.8164 52.0716 67.2399 52.2402 66.8379 52.7828C66.5254 52.3195 66.0835 52.0716 65.4099 52.0716C65.1595 52.0614 64.9103 52.1098 64.6846 52.2127C64.4589 52.3155 64.2638 52.4695 64.1167 52.6609V52.1528H63.2686V56.1926H64.1167V53.8811C64.1167 53.1699 64.5629 52.8295 65.1879 52.8295C65.813 52.8295 66.1697 53.2085 66.1697 53.8811V56.1957H67.0179V53.8811C67.0179 53.1699 67.464 52.8295 68.0891 52.8295C68.7142 52.8295 69.0709 53.2085 69.0709 53.8811V56.1957H70.0063ZM83.9323 52.1975H82.3697V50.9783H81.5237V52.1975H80.6313V52.9088H81.5237V54.8067C81.5237 55.7324 81.8804 56.28 82.9516 56.28C83.3575 56.272 83.7551 56.1709 84.1101 55.9854L83.8418 55.2741C83.601 55.416 83.3218 55.4891 83.0378 55.4844C82.5917 55.4844 82.3686 55.2315 82.3686 54.8108V52.8763H83.9312V52.2026L83.9323 52.1975ZM91.8771 52.0716C91.6461 52.0667 91.4177 52.1185 91.2143 52.2218C91.0108 52.325 90.8393 52.4763 90.7164 52.6609V52.1528H89.8683V56.1926H90.7164V53.9238C90.7164 53.2502 91.0732 52.8295 91.654 52.8295C91.85 52.837 92.0445 52.8653 92.2338 52.9139L92.5022 52.1559C92.2975 52.1072 92.088 52.079 91.8771 52.0716ZM79.8705 52.4922C79.4243 52.1975 78.7993 52.0716 78.13 52.0716C77.0588 52.0716 76.3895 52.5349 76.3895 53.3345C76.3895 54.0081 76.881 54.3861 77.8175 54.5131L78.2636 54.5548C78.7551 54.6391 79.0676 54.8078 79.0676 55.0181C79.0676 55.3127 78.7109 55.5261 78.0406 55.5261C77.5287 55.536 77.0274 55.3884 76.6126 55.1055L76.1664 55.7364C76.7915 56.1571 77.5502 56.2444 77.9985 56.2444C79.2487 56.2444 79.9179 55.6978 79.9179 54.9398C79.9179 54.2286 79.3791 53.8882 78.4447 53.7612L77.9985 53.7196C77.5965 53.6779 77.2441 53.5509 77.2441 53.2989C77.2441 53.0043 77.6009 52.7909 78.0923 52.7909C78.6311 52.7909 79.1635 53.0012 79.4319 53.1272L79.8705 52.4922ZM92.8147 54.1758C92.8147 55.395 93.6629 56.28 95.0466 56.28C95.6717 56.28 96.1179 56.154 96.564 55.8167L96.1179 55.1857C95.802 55.4269 95.4089 55.5605 95.0024 55.5647C94.2481 55.5647 93.6629 55.0181 93.6629 54.2185C93.6629 53.4188 94.2405 52.8763 95.0024 52.8763C95.4089 52.8805 95.802 53.0141 96.1179 53.2552L96.564 52.6243C96.1179 52.288 95.6717 52.161 95.0466 52.161C93.707 52.0766 92.8147 52.9606 92.8147 54.1809V54.1758ZM86.8335 52.0716C85.5834 52.0716 84.7352 52.9128 84.7352 54.1758C84.7352 55.4387 85.6275 56.28 86.9219 56.28C87.5515 56.2925 88.1664 56.0994 88.6623 55.7334L88.2162 55.1441C87.8575 55.4061 87.4196 55.5534 86.966 55.5647C86.3862 55.5647 85.7612 55.2284 85.6728 54.5131H88.8423V54.1768C88.8423 52.9139 88.0384 52.0726 86.8335 52.0726V52.0716ZM86.7893 52.8295C87.4144 52.8295 87.8605 53.2085 87.9047 53.8395H85.5844C85.7181 53.2502 86.1233 52.8295 86.7893 52.8295ZM75.2288 54.1758V52.1559H74.3807V52.6639C74.0682 52.2849 73.6263 52.0746 72.9969 52.0746C71.7921 52.0746 70.8987 52.9586 70.8987 54.1788C70.8987 55.3991 71.791 56.2831 72.9969 56.2831C73.622 56.2831 74.0682 56.0727 74.3807 55.6938V56.2018H75.2288V54.1758ZM71.7921 54.1758C71.7921 53.4178 72.2835 52.8295 73.1316 52.8295C73.9356 52.8295 74.4249 53.4188 74.4249 54.1758C74.4249 54.9754 73.886 55.522 73.1316 55.522C72.2835 55.5637 71.7921 54.9327 71.7921 54.1758ZM104.778 52.0716C104.547 52.0667 104.319 52.1185 104.115 52.2218C103.912 52.325 103.74 52.4763 103.618 52.6609V52.1528H102.769V56.1926H103.616V53.9238C103.616 53.2502 103.973 52.8295 104.554 52.8295C104.75 52.837 104.945 52.8653 105.134 52.9139L105.402 52.1559C105.198 52.1072 104.988 52.079 104.777 52.0716H104.778ZM101.475 54.1758V52.1559H100.627V52.6639C100.314 52.2849 99.8726 52.0746 99.2432 52.0746C98.0383 52.0746 97.1449 52.9586 97.1449 54.1788C97.1449 55.3991 98.0372 56.2831 99.2432 56.2831C99.8682 56.2831 100.314 56.0727 100.627 55.6938V56.2018H101.475V54.1758ZM98.0383 54.1758C98.0383 53.4178 98.5297 52.8295 99.3779 52.8295C100.182 52.8295 100.671 53.4188 100.671 54.1758C100.671 54.9754 100.132 55.522 99.3779 55.522C98.5297 55.5637 98.0383 54.9327 98.0383 54.1758ZM110.09 54.1758V50.5566H109.242V52.6609C108.93 52.2819 108.488 52.0716 107.858 52.0716C106.653 52.0716 105.76 52.9555 105.76 54.1758C105.76 55.3961 106.652 56.28 107.858 56.28C108.483 56.28 108.93 56.0697 109.242 55.6907V56.1987H110.09V54.1758ZM106.653 54.1758C106.653 53.4178 107.145 52.8295 107.993 52.8295C108.797 52.8295 109.286 53.4188 109.286 54.1758C109.286 54.9754 108.747 55.522 107.993 55.522C107.144 55.5647 106.652 54.9338 106.652 54.1758H106.653Z" fill="#1E293B"/>
<path d="M78.8887 21.5195H94.3773V45.3376H78.8887V21.5195Z" fill="#FF5F00"/>
<path d="M80.4516 33.4285C80.4521 31.1372 81.0025 28.8757 82.0614 26.8133C83.1204 24.7509 84.6605 22.9412 86.5664 21.5195C84.1961 19.7624 81.3493 18.6696 78.3513 18.366C75.3533 18.0623 72.3252 18.5601 69.6131 19.8023C66.901 21.0446 64.6144 22.9812 63.0146 25.3908C61.4148 27.8004 60.5664 30.5858 60.5664 33.4285C60.5664 36.2712 61.4148 39.0566 63.0146 41.4662C64.6144 43.8758 66.901 45.8124 69.6131 47.0547C72.3252 48.2969 75.3533 48.7947 78.3513 48.491C81.3493 48.1874 84.1961 47.0946 86.5664 45.3375C84.6605 43.9159 83.1204 42.1061 82.0614 40.0437C81.0025 37.9813 80.4521 35.7198 80.4516 33.4285Z" fill="#EB001B"/>
<path d="M112.589 33.4281C112.591 36.2688 111.745 39.0527 110.148 41.4614C108.551 43.8701 106.267 45.8064 103.557 47.0488C100.848 48.2912 97.8218 48.7896 94.8259 48.4869C91.83 48.1842 88.985 47.0927 86.6162 45.3372C88.5226 43.9159 90.0631 42.1062 91.1221 40.0437C92.1811 37.9812 92.7312 35.7196 92.7312 33.4281C92.7312 31.1367 92.1811 28.875 91.1221 26.8126C90.0631 24.7501 88.5226 22.9404 86.6162 21.5191C88.985 19.7636 91.83 18.6721 94.8259 18.3694C97.8218 18.0667 100.848 18.565 103.557 19.8074C106.267 21.0499 108.551 22.9861 110.148 25.3949C111.745 27.8036 112.591 30.5875 112.589 33.4281Z" fill="#F79E1B"/>
</g>
<path d="M158.66 49.9172L162.081 24.8599H167.554L164.13 49.9172H158.66ZM183.902 25.4001C182.818 24.8924 181.119 24.3477 178.997 24.3477C173.589 24.3477 169.78 27.7462 169.748 32.617C169.717 36.2175 172.467 38.2262 174.543 39.4246C176.673 40.6532 177.389 41.4363 177.379 42.5329C177.365 44.2126 175.678 44.9796 174.105 44.9796C171.915 44.9796 170.751 44.5998 168.953 43.6646L168.248 43.2664L167.48 48.8757C168.758 49.5754 171.122 50.1811 173.576 50.2126C179.329 50.2126 183.064 46.8529 183.106 41.6513C183.127 38.8008 181.669 36.6318 178.511 34.8433C176.598 33.6841 175.427 32.9106 175.439 31.7368C175.439 30.6953 176.431 29.5816 178.574 29.5816C180.363 29.5469 181.66 30.0339 182.67 30.5416L183.16 30.8307L183.902 25.4001ZM197.985 24.8595H193.756C192.446 24.8595 191.466 25.3057 190.89 26.9375L182.763 49.9007H188.509C188.509 49.9007 189.449 46.8132 189.661 46.1352C190.289 46.1352 195.872 46.1459 196.67 46.1459C196.834 47.0232 197.336 49.9007 197.336 49.9007H202.414L197.985 24.8588V24.8595ZM191.275 41.04C191.728 39.5963 193.456 34.0353 193.456 34.0353C193.424 34.102 193.905 32.5846 194.181 31.6438L194.551 33.8042C194.551 33.8042 195.599 39.7855 195.818 41.0396H191.275V41.04ZM154.014 24.8595L148.656 41.9475L148.085 38.475C147.088 34.4719 143.98 30.1349 140.506 27.9637L145.405 49.8773L151.195 49.8692L159.811 24.8593L154.014 24.8591" fill="#0E4595"/>
<path d="M143.656 24.8574H134.832L134.762 25.3788C141.627 27.4529 146.17 32.4652 148.056 38.4885L146.137 26.9736C145.806 25.387 144.845 24.9134 143.657 24.8581" fill="#F2AE14"/>
<g clip-path="url(#clip2_1216_7417)">
<path fill-rule="evenodd" clip-rule="evenodd" d="M248.19 37.288C248.19 44.3842 242.947 50.1367 236.48 50.1367C230.012 50.1367 224.769 44.3842 224.769 37.288C224.769 30.1919 230.012 24.4393 236.48 24.4393C242.947 24.4393 248.19 30.1919 248.19 37.288Z" fill="#ED342B"/>
<path fill-rule="evenodd" clip-rule="evenodd" d="M236.479 42.7923C233.86 36.2777 231.939 30.1919 231.939 30.1919H227.924C227.924 30.1919 230.368 38.0031 234.908 47.7715H238.051C242.591 38.0031 245.035 30.1919 245.035 30.1919H241.019C241.019 30.1919 239.099 36.2777 236.479 42.7923Z" fill="#FEFEFE"/>
<path fill-rule="evenodd" clip-rule="evenodd" d="M286.913 36.617C284.643 36.617 284.469 39.299 284.469 39.299H289.357C289.357 39.299 289.183 36.617 286.913 36.617ZM292.326 41.9806H284.469C284.469 41.9806 284.643 44.8545 288.135 44.8545C289.881 44.8545 291.627 44.2792 291.627 44.2792L291.977 47.3442C291.977 47.3442 290.231 48.1109 287.786 48.1109C284.294 48.1109 281.151 46.1951 281.151 40.8314C281.151 36.617 283.596 33.935 287.088 33.935C292.326 33.935 292.674 39.6819 292.326 41.9806ZM265.61 37.4543L266.15 34.2914C266.15 34.2914 261.976 32.9016 258.583 35.4771V48.1289H262.186V37.8493C263.628 36.6637 265.61 37.4543 265.61 37.4543ZM250.59 36.617C248.32 36.617 248.146 39.299 248.146 39.299H253.034C253.034 39.299 252.86 36.617 250.59 36.617ZM256.002 41.9806H248.146C248.146 41.9806 248.32 44.8545 251.812 44.8545C253.558 44.8545 255.304 44.2792 255.304 44.2792L255.653 47.3442C255.653 47.3442 253.907 48.1109 251.463 48.1109C247.971 48.1109 244.828 46.1951 244.828 40.8314C244.828 36.617 247.273 33.935 250.764 33.935C256.002 33.935 256.351 39.6819 256.002 41.9806ZM274.404 43.2935C272.574 38.4751 271.659 33.9373 271.659 33.9373L268.001 33.9378C268.001 33.9378 269.83 41.6873 272.941 48.1085H275.867C278.977 41.6873 280.807 33.939 280.807 33.939H277.148C277.148 33.939 276.233 38.4751 274.404 43.2935Z" fill="#03435F"/>
</g>
<rect width="119.703" height="19.4865" transform="translate(52.624)" fill="#F3F4F6"/>
<path d="M61.2676 12.5041C61.2676 12.8001 61.2076 13.0641 61.0876 13.2961C60.9756 13.5201 60.8196 13.7121 60.6196 13.8721C60.4276 14.0321 60.1956 14.1561 59.9236 14.2441C59.6596 14.3241 59.3716 14.3641 59.0596 14.3641C58.6116 14.3641 58.1596 14.2841 57.7036 14.1241C57.2476 13.9561 56.8436 13.7321 56.4916 13.4521L56.9596 12.7921C57.2956 13.0481 57.6436 13.2441 58.0036 13.3801C58.3716 13.5161 58.7396 13.5841 59.1076 13.5841C59.4836 13.5841 59.7916 13.4961 60.0316 13.3201C60.2716 13.1441 60.3916 12.9041 60.3916 12.6001V12.5761C60.3916 12.4241 60.3476 12.2921 60.2596 12.1801C60.1796 12.0681 60.0676 11.9721 59.9236 11.8921C59.7796 11.8041 59.6116 11.7281 59.4196 11.6641C59.2356 11.6001 59.0436 11.5401 58.8436 11.4841C58.6036 11.4121 58.3596 11.3361 58.1116 11.2561C57.8716 11.1681 57.6516 11.0601 57.4516 10.9321C57.2596 10.8041 57.0996 10.6441 56.9716 10.4521C56.8516 10.2601 56.7916 10.0201 56.7916 9.73214V9.70814C56.7916 9.44414 56.8436 9.20414 56.9476 8.98814C57.0516 8.76414 57.1956 8.57614 57.3796 8.42414C57.5716 8.26414 57.7956 8.14414 58.0516 8.06414C58.3156 7.97614 58.5996 7.93214 58.9036 7.93214C59.2876 7.93214 59.6756 7.99614 60.0676 8.12414C60.4596 8.24414 60.8156 8.40814 61.1356 8.61614L60.7156 9.31214C60.4276 9.12814 60.1236 8.98414 59.8036 8.88014C59.4916 8.76814 59.1836 8.71214 58.8796 8.71214C58.5116 8.71214 58.2196 8.80014 58.0036 8.97614C57.7876 9.14414 57.6796 9.35614 57.6796 9.61214V9.63614C57.6796 9.78014 57.7236 9.90814 57.8116 10.0201C57.8996 10.1241 58.0156 10.2161 58.1596 10.2961C58.3116 10.3761 58.4836 10.4481 58.6756 10.5121C58.8676 10.5761 59.0676 10.6401 59.2756 10.7041C59.5156 10.7761 59.7516 10.8561 59.9836 10.9441C60.2236 11.0321 60.4396 11.1441 60.6316 11.2801C60.8236 11.4161 60.9756 11.5801 61.0876 11.7721C61.2076 11.9641 61.2676 12.2001 61.2676 12.4801V12.5041ZM62.9361 11.4841C62.9681 11.8201 63.0481 12.1201 63.1761 12.3841C63.3041 12.6401 63.4681 12.8601 63.6681 13.0441C63.8681 13.2201 64.0921 13.3561 64.3401 13.4521C64.5881 13.5401 64.8481 13.5841 65.1201 13.5841C65.5521 13.5841 65.9201 13.5041 66.2241 13.3441C66.5361 13.1841 66.8201 12.9721 67.0761 12.7081L67.6521 13.2241C67.3401 13.5761 66.9841 13.8601 66.5841 14.0761C66.1841 14.2841 65.6881 14.3881 65.0961 14.3881C64.6721 14.3881 64.2721 14.3121 63.8961 14.1601C63.5201 14.0001 63.1921 13.7801 62.9121 13.5001C62.6321 13.2121 62.4081 12.8681 62.2401 12.4681C62.0801 12.0681 62.0001 11.6281 62.0001 11.1481C62.0001 10.7001 62.0721 10.2801 62.2161 9.88814C62.3681 9.48814 62.5761 9.14414 62.8401 8.85614C63.1041 8.56014 63.4161 8.32814 63.7761 8.16014C64.1441 7.99214 64.5441 7.90814 64.9761 7.90814C65.4321 7.90814 65.8401 7.99614 66.2001 8.17214C66.5601 8.34014 66.8641 8.57214 67.1121 8.86814C67.3601 9.16414 67.5481 9.51214 67.6761 9.91214C67.8041 10.3121 67.8681 10.7401 67.8681 11.1961C67.8681 11.2361 67.8681 11.2801 67.8681 11.3281C67.8681 11.3761 67.8641 11.4281 67.8561 11.4841H62.9361ZM62.9361 10.8001H66.9321C66.9081 10.5201 66.8481 10.2521 66.7521 9.99614C66.6641 9.74014 66.5361 9.51614 66.3681 9.32414C66.2081 9.13214 66.0081 8.98014 65.7681 8.86814C65.5361 8.74814 65.2641 8.68814 64.9521 8.68814C64.6801 8.68814 64.4281 8.74414 64.1961 8.85614C63.9641 8.96014 63.7601 9.10814 63.5841 9.30014C63.4081 9.48414 63.2641 9.70414 63.1521 9.96014C63.0401 10.2161 62.9681 10.4961 62.9361 10.8001ZM74.2137 13.1881C73.9017 13.5401 73.5457 13.8281 73.1457 14.0521C72.7537 14.2761 72.2657 14.3881 71.6817 14.3881C71.2257 14.3881 70.8017 14.3041 70.4097 14.1361C70.0257 13.9601 69.6897 13.7281 69.4017 13.4401C69.1217 13.1441 68.9017 12.8001 68.7417 12.4081C68.5817 12.0161 68.5017 11.6001 68.5017 11.1601C68.5017 10.7201 68.5817 10.3041 68.7417 9.91214C68.9017 9.51214 69.1217 9.16414 69.4017 8.86814C69.6897 8.57214 70.0257 8.34014 70.4097 8.17214C70.8017 7.99614 71.2257 7.90814 71.6817 7.90814C71.9777 7.90814 72.2457 7.93614 72.4857 7.99214C72.7257 8.04814 72.9457 8.12814 73.1457 8.23214C73.3457 8.32814 73.5297 8.44414 73.6977 8.58014C73.8657 8.71614 74.0217 8.86014 74.1657 9.01214L73.5537 9.66014C73.3057 9.40414 73.0337 9.18414 72.7377 9.00014C72.4497 8.81614 72.0937 8.72414 71.6697 8.72414C71.3577 8.72414 71.0657 8.78814 70.7937 8.91614C70.5217 9.03614 70.2857 9.20814 70.0857 9.43214C69.8857 9.64814 69.7297 9.90414 69.6177 10.2001C69.5057 10.4881 69.4497 10.8001 69.4497 11.1361C69.4497 11.4721 69.5057 11.7881 69.6177 12.0841C69.7377 12.3801 69.8977 12.6401 70.0977 12.8641C70.3057 13.0801 70.5457 13.2521 70.8177 13.3801C71.0977 13.5001 71.4017 13.5601 71.7297 13.5601C72.1297 13.5601 72.4817 13.4721 72.7857 13.2961C73.0977 13.1201 73.3777 12.9001 73.6257 12.6361L74.2137 13.1881ZM79.5452 11.5921V8.04014H80.4572V14.2441H79.5452V13.1641C79.3372 13.5001 79.0652 13.7881 78.7292 14.0281C78.3932 14.2601 77.9572 14.3761 77.4212 14.3761C77.0452 14.3761 76.7092 14.3161 76.4132 14.1961C76.1252 14.0761 75.8772 13.9081 75.6692 13.6921C75.4692 13.4681 75.3132 13.2041 75.2012 12.9001C75.0972 12.5961 75.0452 12.2601 75.0452 11.8921V8.04014H75.9692V11.6641C75.9692 12.2401 76.1172 12.6961 76.4132 13.0321C76.7092 13.3681 77.1332 13.5361 77.6852 13.5361C77.9492 13.5361 78.1932 13.4921 78.4172 13.4041C78.6492 13.3081 78.8452 13.1761 79.0052 13.0081C79.1732 12.8321 79.3052 12.6241 79.4012 12.3841C79.4972 12.1441 79.5452 11.8801 79.5452 11.5921ZM82.8597 11.7721V14.2441H81.9357V8.04014H82.8597V9.66014C82.9717 9.40414 83.1117 9.16814 83.2797 8.95214C83.4477 8.73614 83.6397 8.55214 83.8557 8.40014C84.0717 8.24014 84.3077 8.12014 84.5637 8.04014C84.8197 7.96014 85.0957 7.92414 85.3917 7.93214V8.92814H85.3197C84.9837 8.92814 84.6637 8.98814 84.3597 9.10814C84.0637 9.22814 83.8037 9.40814 83.5797 9.64814C83.3557 9.88814 83.1797 10.1881 83.0517 10.5481C82.9237 10.9001 82.8597 11.3081 82.8597 11.7721ZM86.4815 11.4841C86.5135 11.8201 86.5935 12.1201 86.7215 12.3841C86.8495 12.6401 87.0135 12.8601 87.2135 13.0441C87.4135 13.2201 87.6375 13.3561 87.8855 13.4521C88.1335 13.5401 88.3935 13.5841 88.6655 13.5841C89.0975 13.5841 89.4655 13.5041 89.7695 13.3441C90.0815 13.1841 90.3655 12.9721 90.6215 12.7081L91.1975 13.2241C90.8855 13.5761 90.5295 13.8601 90.1295 14.0761C89.7295 14.2841 89.2335 14.3881 88.6415 14.3881C88.2175 14.3881 87.8175 14.3121 87.4415 14.1601C87.0655 14.0001 86.7375 13.7801 86.4575 13.5001C86.1775 13.2121 85.9535 12.8681 85.7855 12.4681C85.6255 12.0681 85.5455 11.6281 85.5455 11.1481C85.5455 10.7001 85.6175 10.2801 85.7615 9.88814C85.9135 9.48814 86.1215 9.14414 86.3855 8.85614C86.6495 8.56014 86.9615 8.32814 87.3215 8.16014C87.6895 7.99214 88.0895 7.90814 88.5215 7.90814C88.9775 7.90814 89.3855 7.99614 89.7455 8.17214C90.1055 8.34014 90.4095 8.57214 90.6575 8.86814C90.9055 9.16414 91.0935 9.51214 91.2215 9.91214C91.3495 10.3121 91.4135 10.7401 91.4135 11.1961C91.4135 11.2361 91.4135 11.2801 91.4135 11.3281C91.4135 11.3761 91.4095 11.4281 91.4015 11.4841H86.4815ZM86.4815 10.8001H90.4775C90.4535 10.5201 90.3935 10.2521 90.2975 9.99614C90.2095 9.74014 90.0815 9.51614 89.9135 9.32414C89.7535 9.13214 89.5535 8.98014 89.3135 8.86814C89.0815 8.74814 88.8095 8.68814 88.4975 8.68814C88.2255 8.68814 87.9735 8.74414 87.7415 8.85614C87.5095 8.96014 87.3055 9.10814 87.1295 9.30014C86.9535 9.48414 86.8095 9.70414 86.6975 9.96014C86.5855 10.2161 86.5135 10.4961 86.4815 10.8001ZM98.335 14.2441H97.411V12.9961C97.283 13.1801 97.139 13.3561 96.979 13.5241C96.827 13.6921 96.655 13.8401 96.463 13.9681C96.271 14.0961 96.055 14.1961 95.815 14.2681C95.583 14.3401 95.323 14.3761 95.035 14.3761C94.659 14.3761 94.295 14.3041 93.943 14.1601C93.591 14.0161 93.275 13.8081 92.995 13.5361C92.715 13.2561 92.491 12.9161 92.323 12.5161C92.155 12.1161 92.071 11.6601 92.071 11.1481C92.071 10.6361 92.155 10.1801 92.323 9.78014C92.491 9.38014 92.715 9.04414 92.995 8.77214C93.275 8.49214 93.591 8.28014 93.943 8.13614C94.295 7.98414 94.659 7.90814 95.035 7.90814C95.323 7.90814 95.587 7.94414 95.827 8.01614C96.067 8.08814 96.283 8.18414 96.475 8.30414C96.667 8.42414 96.839 8.56414 96.991 8.72414C97.151 8.88414 97.291 9.05214 97.411 9.22814V5.48414H98.335V14.2441ZM97.447 11.1361C97.447 10.7761 97.383 10.4481 97.255 10.1521C97.135 9.85614 96.967 9.60414 96.751 9.39614C96.543 9.18814 96.303 9.02814 96.031 8.91614C95.767 8.79614 95.491 8.73614 95.203 8.73614C94.899 8.73614 94.615 8.79214 94.351 8.90414C94.087 9.00814 93.855 9.16414 93.655 9.37214C93.463 9.57214 93.307 9.82414 93.187 10.1281C93.075 10.4241 93.019 10.7601 93.019 11.1361C93.019 11.5041 93.075 11.8361 93.187 12.1321C93.307 12.4281 93.467 12.6841 93.667 12.9001C93.867 13.1081 94.099 13.2681 94.363 13.3801C94.627 13.4921 94.907 13.5481 95.203 13.5481C95.491 13.5481 95.767 13.4921 96.031 13.3801C96.303 13.2601 96.543 13.0961 96.751 12.8881C96.967 12.6801 97.135 12.4281 97.255 12.1321C97.383 11.8281 97.447 11.4961 97.447 11.1361ZM109.061 11.1361C109.061 11.6481 108.977 12.1041 108.809 12.5041C108.641 12.9041 108.417 13.2441 108.137 13.5241C107.865 13.7961 107.549 14.0081 107.189 14.1601C106.837 14.3041 106.473 14.3761 106.097 14.3761C105.809 14.3761 105.545 14.3401 105.305 14.2681C105.065 14.1961 104.849 14.1001 104.657 13.9801C104.465 13.8601 104.289 13.7201 104.129 13.5601C103.977 13.4001 103.841 13.2321 103.721 13.0561V14.2441H102.797V5.48414H103.721V9.28814C103.849 9.10414 103.989 8.92814 104.141 8.76014C104.301 8.59214 104.477 8.44814 104.669 8.32814C104.861 8.20014 105.073 8.10014 105.305 8.02814C105.545 7.94814 105.809 7.90814 106.097 7.90814C106.465 7.90814 106.825 7.98014 107.177 8.12414C107.537 8.26814 107.857 8.48014 108.137 8.76014C108.417 9.03214 108.641 9.36814 108.809 9.76814C108.977 10.1681 109.061 10.6241 109.061 11.1361ZM108.113 11.1481C108.113 10.7801 108.053 10.4481 107.933 10.1521C107.821 9.85614 107.665 9.60414 107.465 9.39614C107.265 9.18014 107.033 9.01614 106.769 8.90414C106.505 8.79214 106.225 8.73614 105.929 8.73614C105.641 8.73614 105.361 8.79614 105.089 8.91614C104.825 9.02814 104.585 9.18814 104.369 9.39614C104.161 9.60414 103.993 9.85614 103.865 10.1521C103.745 10.4481 103.685 10.7761 103.685 11.1361C103.685 11.4961 103.745 11.8281 103.865 12.1321C103.993 12.4281 104.161 12.6801 104.369 12.8881C104.585 13.0961 104.825 13.2601 105.089 13.3801C105.361 13.4921 105.641 13.5481 105.929 13.5481C106.225 13.5481 106.505 13.4961 106.769 13.3921C107.041 13.2801 107.273 13.1241 107.465 12.9241C107.665 12.7161 107.821 12.4641 107.933 12.1681C108.053 11.8641 108.113 11.5241 108.113 11.1481ZM115.489 8.04014L112.885 14.4481C112.621 15.0881 112.325 15.5401 111.997 15.8041C111.677 16.0681 111.285 16.2001 110.821 16.2001C110.565 16.2001 110.333 16.1721 110.125 16.1161C109.917 16.0681 109.709 15.9921 109.501 15.8881L109.813 15.1561C109.965 15.2361 110.113 15.2921 110.257 15.3241C110.409 15.3641 110.585 15.3841 110.785 15.3841C111.065 15.3841 111.301 15.3001 111.493 15.1321C111.685 14.9641 111.873 14.6601 112.057 14.2201L109.237 8.04014H110.257L112.513 13.2121L114.505 8.04014H115.489Z" fill="#1E293B"/>
<path d="M125.889 11.0401C125.889 13.1881 124.485 14.3641 122.961 14.3641C121.989 14.3641 121.389 13.9201 120.957 13.4041V16.1641H119.133V7.81214H120.957V8.73614C121.401 8.13614 122.013 7.69214 122.961 7.69214C124.461 7.69214 125.889 8.86814 125.889 11.0161V11.0401ZM124.065 11.0401V11.0161C124.065 9.94814 123.345 9.24014 122.493 9.24014C121.641 9.24014 120.933 9.94814 120.933 11.0161V11.0401C120.933 12.1081 121.641 12.8161 122.493 12.8161C123.345 12.8161 124.065 12.1201 124.065 11.0401ZM132.163 14.2441H130.399V13.5481C129.955 14.0401 129.343 14.3641 128.455 14.3641C127.243 14.3641 126.247 13.6681 126.247 12.3961V12.3721C126.247 10.9681 127.315 10.3201 128.839 10.3201C129.487 10.3201 129.955 10.4281 130.411 10.5841V10.4761C130.411 9.72014 129.943 9.30014 129.031 9.30014C128.335 9.30014 127.843 9.43214 127.255 9.64814L126.799 8.25614C127.507 7.94414 128.203 7.74014 129.295 7.74014C131.287 7.74014 132.163 8.77214 132.163 10.5121V14.2441ZM130.435 11.9761V11.6521C130.123 11.5081 129.715 11.4121 129.271 11.4121C128.491 11.4121 128.011 11.7241 128.011 12.3001V12.3241C128.011 12.8161 128.419 13.1041 129.007 13.1041C129.859 13.1041 130.435 12.6361 130.435 11.9761ZM139.018 7.81214L136.546 14.4001C136.054 15.7081 135.526 16.2001 134.434 16.2001C133.774 16.2001 133.282 16.0321 132.814 15.7561L133.426 14.4361C133.666 14.5801 133.966 14.6881 134.206 14.6881C134.518 14.6881 134.686 14.5921 134.842 14.2681L132.322 7.81214H134.254L135.718 12.1921L137.122 7.81214H139.018ZM143.975 12.2881C143.975 13.7161 142.907 14.3641 141.515 14.3641C140.615 14.3641 139.607 14.0641 138.755 13.3921L139.535 12.1921C140.231 12.6961 140.963 12.9601 141.563 12.9601C142.091 12.9601 142.331 12.7681 142.331 12.4801V12.4561C142.331 12.0601 141.707 11.9281 140.999 11.7121C140.099 11.4481 139.079 11.0281 139.079 9.78014V9.75614C139.079 8.44814 140.135 7.71614 141.431 7.71614C142.247 7.71614 143.135 7.99214 143.831 8.46014L143.135 9.72014C142.499 9.34814 141.863 9.12014 141.395 9.12014C140.951 9.12014 140.723 9.31214 140.723 9.56414V9.58814C140.723 9.94814 141.335 10.1161 142.031 10.3561C142.931 10.6561 143.975 11.0881 143.975 12.2641V12.2881ZM148.177 13.9801C147.793 14.2081 147.349 14.3521 146.737 14.3521C145.621 14.3521 144.865 13.9081 144.865 12.4201V9.37214H144.097V7.81214H144.865V6.16814H146.689V7.81214H148.201V9.37214H146.689V12.1201C146.689 12.5401 146.869 12.7441 147.277 12.7441C147.613 12.7441 147.913 12.6601 148.177 12.5161V13.9801ZM154.477 14.2441H152.713V13.5481C152.269 14.0401 151.657 14.3641 150.769 14.3641C149.557 14.3641 148.561 13.6681 148.561 12.3961V12.3721C148.561 10.9681 149.629 10.3201 151.153 10.3201C151.801 10.3201 152.269 10.4281 152.725 10.5841V10.4761C152.725 9.72014 152.257 9.30014 151.345 9.30014C150.649 9.30014 150.157 9.43214 149.569 9.64814L149.113 8.25614C149.821 7.94414 150.517 7.74014 151.609 7.74014C153.601 7.74014 154.477 8.77214 154.477 10.5121V14.2441ZM152.749 11.9761V11.6521C152.437 11.5081 152.029 11.4121 151.585 11.4121C150.805 11.4121 150.325 11.7241 150.325 12.3001V12.3241C150.325 12.8161 150.733 13.1041 151.321 13.1041C152.173 13.1041 152.749 12.6361 152.749 11.9761ZM161.111 13.2121C160.487 13.8961 159.767 14.3881 158.483 14.3881C156.551 14.3881 155.135 12.9001 155.135 11.0641V11.0401C155.135 9.20414 156.539 7.69214 158.507 7.69214C159.719 7.69214 160.475 8.10014 161.075 8.77214L159.959 9.97214C159.551 9.54014 159.143 9.26414 158.495 9.26414C157.583 9.26414 156.935 10.0681 156.935 11.0161V11.0401C156.935 12.0241 157.571 12.8161 158.567 12.8161C159.179 12.8161 159.599 12.5521 160.043 12.1321L161.111 13.2121ZM167.931 14.2441H165.843L164.163 11.6161L163.527 12.2881V14.2441H161.703V5.48414H163.527V10.1521L165.663 7.81214H167.847L165.399 10.3441L167.931 14.2441Z" fill="#09A4DA"/>
<rect x="2.08789" y="69.7793" width="179" height="57" rx="3.5" stroke="#1E293B"/>
<path d="M34.2549 107.027V99.6961C34.2545 99.3204 34.1052 98.9603 33.8396 98.6947C33.574 98.4291 33.2139 98.2797 32.8382 98.2793H20.7966C20.421 98.2797 20.0609 98.429 19.7953 98.6946C19.5297 98.9602 19.3803 99.3203 19.3799 99.6959V105.059L17.9451 105.537C17.9021 105.196 17.7364 104.882 17.4791 104.655C17.2217 104.427 16.8902 104.301 16.5467 104.3H14.4217C14.046 104.3 13.6858 104.45 13.4202 104.715C13.1546 104.981 13.0052 105.341 13.0049 105.717V112.092C13.0053 112.467 13.1546 112.828 13.4202 113.093C13.6858 113.359 14.0459 113.508 14.4215 113.508H16.5465C16.8512 113.507 17.1473 113.408 17.3909 113.225C17.6345 113.042 17.8124 112.785 17.8982 112.493L19.99 112.145C20.2339 112.104 20.4846 112.141 20.7056 112.252L22.8794 113.339C23.4613 113.632 24.0956 113.807 24.7454 113.853C25.3952 113.899 26.0477 113.816 26.6652 113.608L35.0456 110.815C35.2944 110.732 35.5239 110.6 35.7204 110.426C35.9169 110.252 36.0764 110.041 36.1893 109.804C36.3023 109.568 36.3663 109.311 36.3777 109.049C36.3891 108.787 36.3475 108.525 36.2555 108.279C36.1036 107.882 35.8261 107.544 35.465 107.318C35.104 107.092 34.6792 106.99 34.2549 107.027ZM16.5466 112.092H14.4216V105.717H16.5466V112.092ZM27.8799 99.6959V101.987L27.182 101.568C27.0719 101.502 26.9459 101.467 26.8174 101.467C26.689 101.467 26.563 101.502 26.4529 101.568L25.7549 101.987V99.6959H27.8799ZM20.7965 99.6959H24.3382V103.238C24.3383 103.363 24.3715 103.486 24.4347 103.594C24.4978 103.703 24.5886 103.792 24.6977 103.854C24.8067 103.916 24.9303 103.947 25.0556 103.946C25.1809 103.944 25.3036 103.909 25.4111 103.845L26.8174 103.001L28.2237 103.845C28.3312 103.909 28.4538 103.944 28.5792 103.946C28.7045 103.947 28.828 103.915 28.9371 103.854C29.0462 103.792 29.1369 103.702 29.2001 103.594C29.2632 103.486 29.2965 103.363 29.2965 103.237V99.6959H32.8382V107.227L29.0031 107.795C29.0001 107.402 28.8762 107.02 28.6484 106.7C28.4205 106.38 28.0997 106.138 27.7295 106.007L23.3186 104.561C22.517 104.301 21.653 104.303 20.8526 104.568L20.7966 104.586L20.7965 99.6959ZM34.9106 109.194C34.88 109.259 34.8364 109.317 34.7825 109.365C34.7286 109.412 34.6656 109.448 34.5973 109.471L26.2168 112.264C25.7758 112.413 25.3097 112.472 24.8456 112.439C24.3814 112.406 23.9284 112.281 23.5128 112.072L21.3387 110.985C20.8501 110.74 20.2961 110.656 19.757 110.747L17.9632 111.046V107.024L21.3008 105.912C21.8125 105.742 22.3651 105.741 22.8776 105.908L27.2668 107.345C27.3835 107.388 27.4801 107.472 27.5373 107.583C27.5946 107.693 27.6083 107.821 27.5759 107.941C27.5435 108.061 27.4672 108.164 27.3622 108.231C27.2572 108.297 27.131 108.322 27.0088 108.299L22.2132 107.427C22.1214 107.41 22.027 107.411 21.9355 107.43C21.844 107.449 21.7572 107.487 21.6802 107.539C21.6031 107.592 21.5373 107.66 21.4865 107.739C21.4357 107.817 21.4009 107.905 21.3842 107.997C21.3675 108.089 21.3692 108.183 21.3891 108.274C21.4091 108.366 21.4469 108.452 21.5005 108.529C21.554 108.606 21.6222 108.671 21.7011 108.721C21.7799 108.771 21.868 108.805 21.9601 108.821L26.7554 109.693C27.0137 109.74 27.279 109.733 27.5345 109.673C27.7899 109.612 28.03 109.499 28.2395 109.341L34.3503 108.435C34.4711 108.418 34.5942 108.442 34.6994 108.504C34.8045 108.566 34.8854 108.662 34.9286 108.776C34.9542 108.843 34.9658 108.915 34.9627 108.987C34.9596 109.059 34.9419 109.129 34.9106 109.194Z" fill="#1E293B"/>
<path d="M42.7548 83.404H40.6298C40.3077 83.4046 39.9954 83.5149 39.7443 83.7167C39.4932 83.9185 39.3184 84.1999 39.2486 84.5143L31.6667 82.8283C30.5448 82.5628 29.3654 82.6974 28.3322 83.2087L25.5722 84.4741C24.9253 84.7987 24.3568 85.2601 23.9061 85.8265L23.0176 86.9456H20.7965C20.4209 86.946 20.0608 87.0954 19.7953 87.361C19.5297 87.6266 19.3803 87.9866 19.3799 88.3622V95.4456C19.3803 95.8212 19.5297 96.1813 19.7953 96.4469C20.0608 96.7125 20.4209 96.8618 20.7965 96.8622H35.6715C36.0471 96.8618 36.4072 96.7125 36.6728 96.4469C36.9384 96.1813 37.0878 95.8212 37.0882 95.4456V93.0461C37.2259 92.9985 37.363 92.9481 37.4973 92.888L39.4706 92.0052C39.6006 92.1922 39.774 92.3451 39.9758 92.4507C40.1776 92.5563 40.402 92.6117 40.6298 92.612H42.7548C43.1304 92.6116 43.4905 92.4622 43.7561 92.1966C44.0217 91.931 44.1711 91.5709 44.1715 91.1953V84.8203C44.171 84.4448 44.0216 84.0848 43.756 83.8192C43.4904 83.5537 43.1304 83.4044 42.7548 83.404ZM35.6715 95.4456H20.7965V88.3623H32.9738L32.8046 88.6964C32.7528 88.7987 32.6769 88.8869 32.5835 88.9534C32.49 89.0198 32.3818 89.0626 32.2682 89.078L28.2475 89.6257C27.7813 89.6891 27.3565 89.9273 27.0592 90.292C26.7618 90.6567 26.6142 91.1207 26.646 91.5902C26.6778 92.0596 26.8867 92.4995 27.2306 92.8208C27.5744 93.142 28.0274 93.3207 28.4979 93.3206H35.4726C35.5395 93.3206 35.6051 93.3129 35.6715 93.3102V95.4456ZM36.919 91.5951C36.4642 91.7993 35.9712 91.9046 35.4726 91.904H28.4979C28.3866 91.904 28.2794 91.8618 28.198 91.7858C28.1166 91.7098 28.0671 91.6058 28.0595 91.4947C28.0519 91.3836 28.0868 91.2738 28.1571 91.1874C28.2274 91.1011 28.3278 91.0447 28.4382 91.0296L32.4589 90.4819C32.7998 90.4356 33.1245 90.307 33.4048 90.1074C33.6851 89.9078 33.9128 89.6431 34.0681 89.3361L34.7578 87.9739C34.8125 87.866 34.8386 87.7458 34.8337 87.6249C34.8288 87.504 34.7929 87.3864 34.7296 87.2832C34.6663 87.1801 34.5776 87.0949 34.472 87.0358C34.3664 86.9767 34.2475 86.9457 34.1265 86.9456H24.8265L25.0157 86.7071C25.3322 86.3085 25.7307 85.9826 26.1843 85.7517L28.944 84.4864C29.6888 84.115 30.5402 84.0169 31.3499 84.2092L39.2132 85.9577V90.5689L36.919 91.5951ZM42.7548 91.1956H40.6298V84.8206H42.7548V91.1956Z" fill="#1E293B"/>
<path d="M54.4219 95.4688C53.9492 95.4688 53.5234 95.5508 53.1445 95.7148C52.7695 95.875 52.4492 96.1094 52.1836 96.418C51.9219 96.7227 51.7207 97.0918 51.5801 97.5254C51.4395 97.959 51.3691 98.4473 51.3691 98.9902C51.3691 99.709 51.4805 100.334 51.7031 100.865C51.9297 101.393 52.2656 101.801 52.7109 102.09C53.1602 102.379 53.7207 102.523 54.3926 102.523C54.7754 102.523 55.1348 102.492 55.4707 102.43C55.8105 102.363 56.1406 102.281 56.4609 102.184V103.051C56.1484 103.168 55.8203 103.254 55.4766 103.309C55.1328 103.367 54.7246 103.396 54.252 103.396C53.3809 103.396 52.6523 103.217 52.0664 102.857C51.4844 102.494 51.0469 101.982 50.7539 101.322C50.4648 100.662 50.3203 99.8828 50.3203 98.9844C50.3203 98.3359 50.4102 97.7441 50.5898 97.209C50.7734 96.6699 51.0391 96.2051 51.3867 95.8145C51.7383 95.4238 52.168 95.123 52.6758 94.9121C53.1875 94.6973 53.7734 94.5898 54.4336 94.5898C54.8672 94.5898 55.2852 94.6328 55.6875 94.7188C56.0898 94.8047 56.4531 94.9277 56.7773 95.0879L56.3789 95.9316C56.1055 95.8066 55.8047 95.6992 55.4766 95.6094C55.1523 95.5156 54.8008 95.4688 54.4219 95.4688ZM60.6222 96.752C61.3878 96.752 61.9562 96.9238 62.3273 97.2676C62.6984 97.6113 62.8839 98.1602 62.8839 98.9141V103.279H62.175L61.9875 102.33H61.9406C61.7609 102.564 61.5734 102.762 61.3781 102.922C61.1828 103.078 60.9562 103.197 60.6984 103.279C60.4445 103.357 60.132 103.396 59.7609 103.396C59.3703 103.396 59.0226 103.328 58.7179 103.191C58.4171 103.055 58.1789 102.848 58.0031 102.57C57.8312 102.293 57.7453 101.941 57.7453 101.516C57.7453 100.875 57.9992 100.383 58.507 100.039C59.0148 99.6953 59.7882 99.5078 60.8273 99.4766L61.9347 99.4297V99.0371C61.9347 98.4824 61.8156 98.0938 61.5773 97.8711C61.339 97.6484 61.0031 97.5371 60.5695 97.5371C60.2335 97.5371 59.9132 97.5859 59.6085 97.6836C59.3039 97.7812 59.0148 97.8965 58.7414 98.0293L58.4425 97.291C58.7316 97.1426 59.0636 97.0156 59.4386 96.9102C59.8136 96.8047 60.2082 96.752 60.6222 96.752ZM61.923 100.115L60.9445 100.156C60.1437 100.188 59.5792 100.318 59.2511 100.549C58.923 100.779 58.7589 101.105 58.7589 101.527C58.7589 101.895 58.8703 102.166 59.0929 102.342C59.3156 102.518 59.6105 102.605 59.9777 102.605C60.548 102.605 61.0148 102.447 61.3781 102.131C61.7414 101.814 61.923 101.34 61.923 100.707V100.115ZM69.0901 101.521C69.0901 101.932 68.9866 102.277 68.7796 102.559C68.5765 102.836 68.2835 103.045 67.9007 103.186C67.5218 103.326 67.0687 103.396 66.5413 103.396C66.0921 103.396 65.7034 103.361 65.3753 103.291C65.0472 103.221 64.7601 103.121 64.514 102.992V102.096C64.7757 102.225 65.0882 102.342 65.4515 102.447C65.8147 102.553 66.1858 102.605 66.5647 102.605C67.1194 102.605 67.5218 102.516 67.7718 102.336C68.0218 102.156 68.1468 101.912 68.1468 101.604C68.1468 101.428 68.096 101.273 67.9944 101.141C67.8968 101.004 67.7308 100.873 67.4964 100.748C67.262 100.619 66.9378 100.479 66.5237 100.326C66.1136 100.17 65.7581 100.016 65.4573 99.8633C65.1605 99.707 64.93 99.5176 64.7659 99.2949C64.6058 99.0723 64.5257 98.7832 64.5257 98.4277C64.5257 97.8848 64.7444 97.4688 65.1819 97.1797C65.6233 96.8867 66.2015 96.7402 66.9163 96.7402C67.303 96.7402 67.6644 96.7793 68.0003 96.8574C68.3401 96.9316 68.6565 97.0332 68.9495 97.1621L68.6214 97.9414C68.3558 97.8281 68.0726 97.7324 67.7718 97.6543C67.471 97.5762 67.1644 97.5371 66.8519 97.5371C66.4026 97.5371 66.0569 97.6113 65.8147 97.7598C65.5765 97.9082 65.4573 98.1113 65.4573 98.3691C65.4573 98.5684 65.512 98.7324 65.6214 98.8613C65.7347 98.9902 65.9144 99.1113 66.1605 99.2246C66.4065 99.3379 66.7308 99.4707 67.1331 99.623C67.5355 99.7715 67.8831 99.9258 68.1761 100.086C68.469 100.242 68.6937 100.434 68.8499 100.66C69.0101 100.883 69.0901 101.17 69.0901 101.521ZM71.6752 94.1621V96.8867C71.6752 97.043 71.6713 97.2012 71.6635 97.3613C71.6557 97.5176 71.642 97.6621 71.6225 97.7949H71.687C71.8198 97.5684 71.9877 97.3789 72.1909 97.2266C72.3979 97.0703 72.6323 96.9531 72.894 96.875C73.1557 96.793 73.4331 96.752 73.726 96.752C74.2417 96.752 74.6713 96.834 75.0151 96.998C75.3627 97.1621 75.6225 97.416 75.7944 97.7598C75.9702 98.1035 76.0581 98.5488 76.0581 99.0957V103.279H75.0971V99.1602C75.0971 98.625 74.9741 98.2246 74.728 97.959C74.4858 97.6934 74.1127 97.5605 73.6088 97.5605C73.1323 97.5605 72.7514 97.6523 72.4663 97.8359C72.185 98.0156 71.9819 98.2812 71.8569 98.6328C71.7358 98.9844 71.6752 99.4141 71.6752 99.9219V103.279H70.7026V94.1621H71.6752ZM81.3561 94.7129L78.1686 103.279H77.2076L80.401 94.7129H81.3561ZM84.949 94.7129C86.0545 94.7129 86.8611 94.9297 87.3689 95.3633C87.8806 95.793 88.1365 96.4102 88.1365 97.2148C88.1365 97.5781 88.0759 97.9238 87.9548 98.252C87.8377 98.5762 87.6462 98.8633 87.3806 99.1133C87.115 99.3594 86.7654 99.5547 86.3318 99.6992C85.9021 99.8398 85.3748 99.9102 84.7498 99.9102H83.7068V103.279H82.7107V94.7129H84.949ZM84.8552 95.5625H83.7068V99.0547H84.6384C85.1853 99.0547 85.6404 98.9961 86.0037 98.8789C86.3709 98.7617 86.6462 98.5723 86.8298 98.3105C87.0134 98.0449 87.1052 97.6934 87.1052 97.2559C87.1052 96.6855 86.9236 96.2617 86.5603 95.9844C86.197 95.7031 85.6287 95.5625 84.8552 95.5625ZM97.4071 98.9844C97.4071 99.6445 97.3232 100.246 97.1552 100.789C96.9872 101.328 96.7372 101.793 96.4052 102.184C96.0771 102.57 95.6689 102.869 95.1806 103.08C94.6923 103.291 94.1259 103.396 93.4814 103.396C92.8173 103.396 92.2372 103.291 91.7411 103.08C91.2489 102.869 90.8388 102.568 90.5107 102.178C90.1864 101.787 89.9423 101.32 89.7782 100.777C89.6181 100.234 89.538 99.6328 89.538 98.9727C89.538 98.0977 89.6825 97.3301 89.9716 96.6699C90.2607 96.0098 90.6982 95.4961 91.2841 95.1289C91.8739 94.7617 92.6122 94.5781 93.4989 94.5781C94.3466 94.5781 95.0595 94.7598 95.6376 95.123C96.2196 95.4863 96.6591 95.998 96.956 96.6582C97.2567 97.3145 97.4071 98.0898 97.4071 98.9844ZM90.5868 98.9844C90.5868 99.7109 90.6903 100.34 90.8974 100.871C91.1044 101.402 91.4208 101.812 91.8466 102.102C92.2763 102.391 92.8212 102.535 93.4814 102.535C94.1454 102.535 94.6884 102.391 95.1103 102.102C95.536 101.812 95.8505 101.402 96.0536 100.871C96.2567 100.34 96.3583 99.7109 96.3583 98.9844C96.3583 97.8789 96.1259 97.0156 95.661 96.3945C95.2001 95.7695 94.4794 95.457 93.4989 95.457C92.8349 95.457 92.288 95.5996 91.8583 95.8848C91.4286 96.1699 91.1083 96.5762 90.8974 97.1035C90.6903 97.627 90.5868 98.2539 90.5868 98.9844ZM104.199 101C104.199 101.508 104.072 101.941 103.818 102.301C103.568 102.656 103.217 102.928 102.764 103.115C102.311 103.303 101.777 103.396 101.164 103.396C100.84 103.396 100.533 103.381 100.244 103.35C99.9551 103.318 99.6895 103.273 99.4473 103.215C99.2051 103.156 98.9922 103.084 98.8087 102.998V102.043C99.1016 102.164 99.459 102.277 99.8809 102.383C100.303 102.484 100.744 102.535 101.205 102.535C101.635 102.535 101.998 102.479 102.295 102.365C102.592 102.248 102.816 102.082 102.969 101.867C103.125 101.648 103.203 101.387 103.203 101.082C103.203 100.789 103.139 100.545 103.01 100.35C102.881 100.15 102.666 99.9707 102.365 99.8105C102.068 99.6465 101.662 99.4727 101.147 99.2891C100.783 99.1602 100.463 99.0195 100.186 98.8672C99.9083 98.7109 99.6758 98.5352 99.4883 98.3398C99.3008 98.1445 99.1583 97.918 99.0606 97.6602C98.9669 97.4023 98.92 97.1074 98.92 96.7754C98.92 96.3184 99.0352 95.9277 99.2657 95.6035C99.5001 95.2754 99.8223 95.0254 100.232 94.8535C100.647 94.6777 101.121 94.5898 101.656 94.5898C102.113 94.5898 102.535 94.6328 102.922 94.7188C103.313 94.8047 103.67 94.9199 103.994 95.0645L103.684 95.9199C103.375 95.791 103.047 95.6836 102.699 95.5977C102.356 95.5117 102 95.4688 101.633 95.4688C101.266 95.4688 100.955 95.5234 100.701 95.6328C100.451 95.7383 100.26 95.8887 100.127 96.084C99.9942 96.2793 99.9278 96.5117 99.9278 96.7812C99.9278 97.082 99.9903 97.332 100.115 97.5312C100.244 97.7305 100.447 97.9082 100.725 98.0645C101.006 98.2168 101.377 98.377 101.838 98.5449C102.342 98.7285 102.77 98.9238 103.121 99.1309C103.473 99.334 103.74 99.584 103.924 99.8809C104.107 100.174 104.199 100.547 104.199 101ZM114.555 100.057C114.555 100.584 114.487 101.055 114.35 101.469C114.213 101.883 114.016 102.232 113.758 102.518C113.5 102.803 113.188 103.021 112.821 103.174C112.457 103.322 112.045 103.396 111.584 103.396C111.155 103.396 110.76 103.322 110.401 103.174C110.045 103.021 109.737 102.803 109.475 102.518C109.217 102.232 109.016 101.883 108.871 101.469C108.731 101.055 108.661 100.584 108.661 100.057C108.661 99.3535 108.78 98.7559 109.018 98.2637C109.256 97.7676 109.596 97.3906 110.037 97.1328C110.483 96.8711 111.012 96.7402 111.625 96.7402C112.211 96.7402 112.723 96.8711 113.161 97.1328C113.602 97.3945 113.944 97.7734 114.186 98.2695C114.432 98.7617 114.555 99.3574 114.555 100.057ZM109.668 100.057C109.668 100.572 109.737 101.02 109.873 101.398C110.01 101.777 110.221 102.07 110.506 102.277C110.791 102.484 111.159 102.588 111.608 102.588C112.053 102.588 112.418 102.484 112.703 102.277C112.993 102.07 113.205 101.777 113.342 101.398C113.479 101.02 113.547 100.572 113.547 100.057C113.547 99.5449 113.479 99.1035 113.342 98.7324C113.205 98.3574 112.994 98.0684 112.709 97.8652C112.424 97.6621 112.055 97.5605 111.602 97.5605C110.934 97.5605 110.444 97.7812 110.131 98.2227C109.823 98.6641 109.668 99.2754 109.668 100.057ZM119.326 96.7402C120.087 96.7402 120.664 96.9277 121.054 97.3027C121.445 97.6738 121.64 98.2715 121.64 99.0957V103.279H120.679V99.1602C120.679 98.625 120.556 98.2246 120.31 97.959C120.068 97.6934 119.695 97.5605 119.191 97.5605C118.48 97.5605 117.98 97.7617 117.691 98.1641C117.402 98.5664 117.257 99.1504 117.257 99.916V103.279H116.285V96.8574H117.07L117.216 97.7832H117.269C117.406 97.5566 117.58 97.3672 117.791 97.2148C118.001 97.0586 118.238 96.9414 118.5 96.8633C118.761 96.7812 119.037 96.7402 119.326 96.7402ZM133.806 98.9141C133.806 99.8789 133.631 100.686 133.279 101.334C132.928 101.979 132.418 102.465 131.75 102.793C131.086 103.117 130.279 103.279 129.33 103.279H127.004V94.7129H129.588C130.459 94.7129 131.209 94.873 131.838 95.1934C132.467 95.5098 132.951 95.9805 133.291 96.6055C133.635 97.2266 133.806 97.9961 133.806 98.9141ZM132.758 98.9492C132.758 98.1797 132.629 97.5449 132.371 97.0449C132.117 96.5449 131.742 96.1738 131.246 95.9316C130.754 95.6855 130.15 95.5625 129.435 95.5625H128V102.424H129.213C130.392 102.424 131.277 102.133 131.867 101.551C132.461 100.969 132.758 100.102 132.758 98.9492ZM138.085 96.7402C138.632 96.7402 139.101 96.8613 139.491 97.1035C139.882 97.3457 140.181 97.6855 140.388 98.123C140.595 98.5566 140.698 99.0645 140.698 99.6465V100.25H136.263C136.274 101.004 136.462 101.578 136.825 101.973C137.188 102.367 137.7 102.564 138.36 102.564C138.767 102.564 139.126 102.527 139.438 102.453C139.751 102.379 140.075 102.27 140.411 102.125V102.98C140.087 103.125 139.765 103.23 139.444 103.297C139.128 103.363 138.753 103.396 138.319 103.396C137.702 103.396 137.163 103.271 136.702 103.021C136.245 102.768 135.89 102.396 135.636 101.908C135.382 101.42 135.255 100.822 135.255 100.115C135.255 99.4238 135.37 98.8262 135.601 98.3223C135.835 97.8145 136.163 97.4238 136.585 97.1504C137.011 96.877 137.511 96.7402 138.085 96.7402ZM138.073 97.5371C137.554 97.5371 137.14 97.707 136.831 98.0469C136.522 98.3867 136.339 98.8613 136.28 99.4707H139.679C139.675 99.0879 139.614 98.752 139.497 98.4629C139.384 98.1699 139.21 97.9434 138.976 97.7832C138.741 97.6191 138.44 97.5371 138.073 97.5371ZM143.377 103.279H142.399V94.1621H143.377V103.279ZM146.454 96.8574V103.279H145.482V96.8574H146.454ZM145.98 94.4551C146.14 94.4551 146.277 94.5078 146.39 94.6133C146.507 94.7148 146.566 94.875 146.566 95.0938C146.566 95.3086 146.507 95.4688 146.39 95.5742C146.277 95.6797 146.14 95.7324 145.98 95.7324C145.812 95.7324 145.671 95.6797 145.558 95.5742C145.449 95.4688 145.394 95.3086 145.394 95.0938C145.394 94.875 145.449 94.7148 145.558 94.6133C145.671 94.5078 145.812 94.4551 145.98 94.4551ZM149.977 103.279L147.539 96.8574H148.582L149.995 100.742C150.092 101.008 150.192 101.301 150.293 101.621C150.395 101.941 150.465 102.199 150.504 102.395H150.545C150.592 102.199 150.67 101.941 150.78 101.621C150.889 101.297 150.989 101.004 151.079 100.742L152.491 96.8574H153.534L151.09 103.279H149.977ZM157.086 96.7402C157.632 96.7402 158.101 96.8613 158.492 97.1035C158.882 97.3457 159.181 97.6855 159.388 98.123C159.595 98.5566 159.699 99.0645 159.699 99.6465V100.25H155.263C155.275 101.004 155.462 101.578 155.826 101.973C156.189 102.367 156.701 102.564 157.361 102.564C157.767 102.564 158.127 102.527 158.439 102.453C158.752 102.379 159.076 102.27 159.412 102.125V102.98C159.087 103.125 158.765 103.23 158.445 103.297C158.129 103.363 157.754 103.396 157.32 103.396C156.703 103.396 156.164 103.271 155.703 103.021C155.246 102.768 154.89 102.396 154.636 101.908C154.382 101.42 154.255 100.822 154.255 100.115C154.255 99.4238 154.371 98.8262 154.601 98.3223C154.836 97.8145 155.164 97.4238 155.586 97.1504C156.011 96.877 156.511 96.7402 157.086 96.7402ZM157.074 97.5371C156.554 97.5371 156.14 97.707 155.832 98.0469C155.523 98.3867 155.339 98.8613 155.281 99.4707H158.679C158.675 99.0879 158.615 98.752 158.498 98.4629C158.384 98.1699 158.211 97.9434 157.976 97.7832C157.742 97.6191 157.441 97.5371 157.074 97.5371ZM164.317 96.7402C164.446 96.7402 164.581 96.748 164.721 96.7637C164.862 96.7754 164.987 96.793 165.096 96.8164L164.973 97.7188C164.868 97.6914 164.751 97.6699 164.622 97.6543C164.493 97.6387 164.372 97.6309 164.259 97.6309C164.001 97.6309 163.757 97.6836 163.526 97.7891C163.3 97.8906 163.1 98.0391 162.928 98.2344C162.757 98.4258 162.622 98.6582 162.524 98.9316C162.426 99.2012 162.378 99.502 162.378 99.834V103.279H161.399V96.8574H162.208L162.313 98.041H162.354C162.487 97.8027 162.647 97.5859 162.835 97.3906C163.022 97.1914 163.239 97.0332 163.485 96.916C163.735 96.7988 164.012 96.7402 164.317 96.7402ZM165.344 96.8574H166.387L167.805 100.584C167.887 100.803 167.963 101.014 168.033 101.217C168.103 101.416 168.166 101.607 168.221 101.791C168.275 101.975 168.318 102.152 168.35 102.324H168.391C168.445 102.129 168.523 101.873 168.625 101.557C168.726 101.236 168.836 100.91 168.953 100.578L170.295 96.8574H171.344L168.549 104.223C168.4 104.617 168.226 104.961 168.027 105.254C167.832 105.547 167.594 105.771 167.312 105.928C167.031 106.088 166.691 106.168 166.293 106.168C166.109 106.168 165.947 106.156 165.807 106.133C165.666 106.113 165.545 106.09 165.443 106.062V105.283C165.529 105.303 165.633 105.32 165.754 105.336C165.879 105.352 166.008 105.359 166.141 105.359C166.383 105.359 166.592 105.312 166.767 105.219C166.947 105.129 167.101 104.996 167.23 104.82C167.359 104.645 167.471 104.436 167.564 104.193L167.916 103.291L165.344 96.8574Z" fill="#1E293B"/>
<rect x="186.088" y="69.7793" width="106" height="56.3745" rx="3.5" stroke="#1E293B"/>
<path fill-rule="evenodd" clip-rule="evenodd" d="M204.572 93.2068C204.774 92.996 204.91 92.5966 205.473 91.8644C206.725 90.2224 208.72 88.758 211.38 88.1367C217.275 86.7499 222.043 90.6884 223.396 94.9487C225.256 100.762 221.615 105.644 217.467 107.308C214.852 108.351 211.842 108.251 209.362 107.13C206.86 105.988 205.958 104.734 204.639 102.781H197.448C197.56 104.168 199.308 107.019 199.928 107.818C210.106 121.009 230.711 113.72 230.587 97.7777C230.52 89.1574 223.937 82.5784 215.968 81.4468C211.121 80.77 206.758 82.2234 203.737 84.3868C202.317 85.3964 200.795 86.8608 199.792 88.2698C199.262 89.0021 198.823 89.7676 198.372 90.6551C198.135 91.1322 197.977 91.4761 197.763 92.053C197.459 92.8185 197.403 93.107 197.436 93.2068H204.572Z" fill="#1DCEA0"/>
<path fill-rule="evenodd" clip-rule="evenodd" d="M202.441 100.785L204.301 100.741L204.38 95.1934H195.712C195.543 96.3361 195.554 99.6866 195.701 100.785H202.441Z" fill="#210E5F"/>
<path d="M238.391 102.967H237.389V95.2793H234.693V94.4004H241.074V95.2793H238.391V102.967ZM245.189 96.4277C245.318 96.4277 245.452 96.4355 245.593 96.4512C245.734 96.4629 245.859 96.4805 245.968 96.5039L245.845 97.4062C245.739 97.3789 245.622 97.3574 245.493 97.3418C245.364 97.3262 245.243 97.3184 245.13 97.3184C244.872 97.3184 244.628 97.3711 244.398 97.4766C244.171 97.5781 243.972 97.7266 243.8 97.9219C243.628 98.1133 243.493 98.3457 243.396 98.6191C243.298 98.8887 243.249 99.1895 243.249 99.5215V102.967H242.271V96.5449H243.079L243.185 97.7285H243.226C243.359 97.4902 243.519 97.2734 243.706 97.0781C243.894 96.8789 244.11 96.7207 244.357 96.6035C244.607 96.4863 244.884 96.4277 245.189 96.4277ZM249.631 96.4395C250.397 96.4395 250.965 96.6113 251.336 96.9551C251.707 97.2988 251.893 97.8477 251.893 98.6016V102.967H251.184L250.996 102.018H250.95C250.77 102.252 250.582 102.449 250.387 102.609C250.192 102.766 249.965 102.885 249.707 102.967C249.453 103.045 249.141 103.084 248.77 103.084C248.379 103.084 248.032 103.016 247.727 102.879C247.426 102.742 247.188 102.535 247.012 102.258C246.84 101.98 246.754 101.629 246.754 101.203C246.754 100.562 247.008 100.07 247.516 99.7266C248.024 99.3828 248.797 99.1953 249.836 99.1641L250.944 99.1172V98.7246C250.944 98.1699 250.825 97.7812 250.586 97.5586C250.348 97.3359 250.012 97.2246 249.578 97.2246C249.242 97.2246 248.922 97.2734 248.617 97.3711C248.313 97.4688 248.024 97.584 247.75 97.7168L247.451 96.9785C247.741 96.8301 248.073 96.7031 248.448 96.5977C248.823 96.4922 249.217 96.4395 249.631 96.4395ZM250.932 99.8027L249.953 99.8438C249.153 99.875 248.588 100.006 248.26 100.236C247.932 100.467 247.768 100.793 247.768 101.215C247.768 101.582 247.879 101.854 248.102 102.029C248.325 102.205 248.619 102.293 248.987 102.293C249.557 102.293 250.024 102.135 250.387 101.818C250.75 101.502 250.932 101.027 250.932 100.395V99.8027ZM256.986 96.4277C257.748 96.4277 258.324 96.6152 258.714 96.9902C259.105 97.3613 259.3 97.959 259.3 98.7832V102.967H258.339V98.8477C258.339 98.3125 258.216 97.9121 257.97 97.6465C257.728 97.3809 257.355 97.248 256.851 97.248C256.14 97.248 255.64 97.4492 255.351 97.8516C255.062 98.2539 254.917 98.8379 254.917 99.6035V102.967H253.945V96.5449H254.73L254.876 97.4707H254.929C255.066 97.2441 255.24 97.0547 255.451 96.9023C255.662 96.7461 255.898 96.6289 256.16 96.5508C256.421 96.4688 256.697 96.4277 256.986 96.4277ZM265.506 101.209C265.506 101.619 265.403 101.965 265.196 102.246C264.993 102.523 264.7 102.732 264.317 102.873C263.938 103.014 263.485 103.084 262.958 103.084C262.508 103.084 262.12 103.049 261.792 102.979C261.463 102.908 261.176 102.809 260.93 102.68V101.783C261.192 101.912 261.504 102.029 261.868 102.135C262.231 102.24 262.602 102.293 262.981 102.293C263.536 102.293 263.938 102.203 264.188 102.023C264.438 101.844 264.563 101.6 264.563 101.291C264.563 101.115 264.512 100.961 264.411 100.828C264.313 100.691 264.147 100.561 263.913 100.436C263.678 100.307 263.354 100.166 262.94 100.014C262.53 99.8574 262.174 99.7031 261.874 99.5508C261.577 99.3945 261.346 99.2051 261.182 98.9824C261.022 98.7598 260.942 98.4707 260.942 98.1152C260.942 97.5723 261.161 97.1562 261.598 96.8672C262.04 96.5742 262.618 96.4277 263.333 96.4277C263.719 96.4277 264.081 96.4668 264.417 96.5449C264.756 96.6191 265.073 96.7207 265.366 96.8496L265.038 97.6289C264.772 97.5156 264.489 97.4199 264.188 97.3418C263.887 97.2637 263.581 97.2246 263.268 97.2246C262.819 97.2246 262.473 97.2988 262.231 97.4473C261.993 97.5957 261.874 97.7988 261.874 98.0566C261.874 98.2559 261.928 98.4199 262.038 98.5488C262.151 98.6777 262.331 98.7988 262.577 98.9121C262.823 99.0254 263.147 99.1582 263.549 99.3105C263.952 99.459 264.299 99.6133 264.592 99.7734C264.885 99.9297 265.11 100.121 265.266 100.348C265.426 100.57 265.506 100.857 265.506 101.209ZM269.978 97.3066H268.379V102.967H267.406V97.3066H266.269V96.8379L267.406 96.5156V96.0879C267.406 95.5488 267.486 95.1113 267.646 94.7754C267.806 94.4355 268.039 94.1855 268.344 94.0254C268.648 93.8652 269.019 93.7852 269.457 93.7852C269.703 93.7852 269.927 93.8066 270.131 93.8496C270.338 93.8926 270.519 93.9414 270.676 93.9961L270.424 94.7637C270.291 94.7207 270.14 94.6816 269.972 94.6465C269.808 94.6074 269.64 94.5879 269.469 94.5879C269.097 94.5879 268.822 94.709 268.642 94.9512C268.467 95.1895 268.379 95.5645 268.379 96.0762V96.5449H269.978V97.3066ZM273.683 96.4277C274.229 96.4277 274.698 96.5488 275.089 96.791C275.479 97.0332 275.778 97.373 275.985 97.8105C276.192 98.2441 276.296 98.752 276.296 99.334V99.9375H271.86C271.872 100.691 272.059 101.266 272.423 101.66C272.786 102.055 273.298 102.252 273.958 102.252C274.364 102.252 274.724 102.215 275.036 102.141C275.349 102.066 275.673 101.957 276.009 101.812V102.668C275.684 102.812 275.362 102.918 275.042 102.984C274.725 103.051 274.35 103.084 273.917 103.084C273.3 103.084 272.761 102.959 272.3 102.709C271.843 102.455 271.487 102.084 271.233 101.596C270.979 101.107 270.852 100.51 270.852 99.8027C270.852 99.1113 270.968 98.5137 271.198 98.0098C271.433 97.502 271.761 97.1113 272.183 96.8379C272.608 96.5645 273.108 96.4277 273.683 96.4277ZM273.671 97.2246C273.151 97.2246 272.737 97.3945 272.429 97.7344C272.12 98.0742 271.936 98.5488 271.878 99.1582H275.276C275.272 98.7754 275.212 98.4395 275.095 98.1504C274.981 97.8574 274.808 97.6309 274.573 97.4707C274.339 97.3066 274.038 97.2246 273.671 97.2246ZM280.914 96.4277C281.043 96.4277 281.178 96.4355 281.318 96.4512C281.459 96.4629 281.584 96.4805 281.693 96.5039L281.57 97.4062C281.465 97.3789 281.348 97.3574 281.219 97.3418C281.09 97.3262 280.969 97.3184 280.856 97.3184C280.598 97.3184 280.354 97.3711 280.123 97.4766C279.897 97.5781 279.697 97.7266 279.525 97.9219C279.354 98.1133 279.219 98.3457 279.121 98.6191C279.023 98.8887 278.975 99.1895 278.975 99.5215V102.967H277.996V96.5449H278.805L278.91 97.7285H278.951C279.084 97.4902 279.244 97.2734 279.432 97.0781C279.619 96.8789 279.836 96.7207 280.082 96.6035C280.332 96.4863 280.609 96.4277 280.914 96.4277Z" fill="#1E293B"/>
<defs>
<clipPath id="clip0_1216_7417">
<rect width="31" height="31" fill="white" transform="translate(13.5879 21.7793)"/>
</clipPath>
<clipPath id="clip1_1216_7417">
<rect width="52" height="38" fill="white" transform="translate(60.5879 18.2793)"/>
</clipPath>
<clipPath id="clip2_1216_7417">
<rect width="68" height="26" fill="white" transform="translate(224.588 24.2793)"/>
</clipPath>
</defs>
</svg>
