<svg width="55" height="34" viewBox="0 0 55 34" fill="none" xmlns="http://www.w3.org/2000/svg">
<path d="M51.7351 0H3.3699C1.77519 0 0.482422 1.29277 0.482422 2.88747V31.1125C0.482422 32.7072 1.77519 34 3.3699 34H51.7351C53.3298 34 54.6225 32.7072 54.6225 31.1125V2.88747C54.6225 1.29277 53.3298 0 51.7351 0Z" fill="black"/>
<path d="M16.4452 30.439V28.6451C16.4452 27.9572 16.0266 27.5089 15.3393 27.5089C14.9784 27.5089 14.5922 27.6288 14.323 28.0142C14.1136 27.6851 13.8176 27.5089 13.3665 27.5089C13.0258 27.4942 12.7004 27.6515 12.5002 27.9276V27.5667H11.9321V30.4368H12.5002V28.7946C12.5002 28.2893 12.7991 28.0474 13.2178 28.0474C13.6365 28.0474 13.8754 28.3167 13.8754 28.7946V30.439H14.4435V28.7946C14.4435 28.2893 14.7424 28.0474 15.161 28.0474C15.5797 28.0474 15.8187 28.3167 15.8187 28.7946V30.439H16.4452ZM25.7732 27.5984H24.7265V26.7322H24.1599V27.5984H23.5621V28.1037H24.1599V29.4522C24.1599 30.1098 24.3988 30.4989 25.1163 30.4989C25.3882 30.4932 25.6545 30.4214 25.8923 30.2896L25.7126 29.7843C25.5513 29.8851 25.3643 29.937 25.1741 29.9337C24.8752 29.9337 24.7258 29.7539 24.7258 29.4551V28.0806H25.7725V27.602L25.7732 27.5984ZM31.0948 27.5089C30.7801 27.5019 30.4848 27.6609 30.3174 27.9276V27.5667H29.7493V30.4368H30.3174V28.8249C30.3174 28.3463 30.5563 28.0474 30.9454 28.0474C31.0767 28.0528 31.207 28.0729 31.3338 28.1074L31.5135 27.5688C31.3764 27.5343 31.2361 27.5142 31.0948 27.5089ZM23.0525 27.8078C22.7537 27.5984 22.335 27.5089 21.8867 27.5089C21.1692 27.5089 20.7209 27.8381 20.7209 28.4062C20.7209 28.8848 21.05 29.1533 21.6774 29.2436L21.9762 29.2732C22.3054 29.3331 22.5147 29.4529 22.5147 29.6023C22.5147 29.8117 22.2758 29.9633 21.8268 29.9633C21.4839 29.9703 21.1481 29.8654 20.8703 29.6644L20.5714 30.1127C20.9901 30.4116 21.4983 30.4736 21.7986 30.4736C22.636 30.4736 23.0843 30.0853 23.0843 29.5468C23.0843 29.0414 22.7233 28.7996 22.0975 28.7094L21.7986 28.6798C21.5294 28.6502 21.2933 28.56 21.2933 28.3809C21.2933 28.1716 21.5323 28.02 21.8614 28.02C22.2224 28.02 22.579 28.1694 22.7587 28.2589L23.0525 27.8078ZM31.7229 29.0039C31.7229 29.8702 32.291 30.4989 33.2179 30.4989C33.6365 30.4989 33.9354 30.4094 34.2343 30.1697L33.9354 29.7214C33.7238 29.8928 33.4605 29.9877 33.1883 29.9907C32.683 29.9907 32.291 29.6023 32.291 29.0342C32.291 28.4661 32.6779 28.0806 33.1883 28.0806C33.4605 28.0837 33.7238 28.1785 33.9354 28.3499L34.2343 27.9016C33.9354 27.6627 33.6365 27.5724 33.2179 27.5724C32.3206 27.5125 31.7229 28.1406 31.7229 29.0075V29.0039ZM27.7165 27.5089C26.8791 27.5089 26.311 28.1066 26.311 29.0039C26.311 29.9012 26.9087 30.4989 27.7757 30.4989C28.1975 30.5078 28.6093 30.3706 28.9415 30.1105L28.6427 29.6919C28.4024 29.878 28.1091 29.9827 27.8053 29.9907C27.4169 29.9907 26.9982 29.7518 26.9391 29.2436H29.0621V29.0046C29.0621 28.1073 28.5236 27.5096 27.7165 27.5096V27.5089ZM27.6869 28.0474C28.1056 28.0474 28.4044 28.3167 28.434 28.765H26.8799C26.9694 28.3463 27.2408 28.0474 27.6869 28.0474ZM19.9434 29.0039V27.5688H19.3753V27.9298C19.166 27.6605 18.87 27.5111 18.4484 27.5111C17.6414 27.5111 17.043 28.1391 17.043 29.0061C17.043 29.873 17.6407 30.5011 18.4484 30.5011C18.8671 30.5011 19.166 30.3516 19.3753 30.0824V30.4433H19.9434V29.0039ZM17.6414 29.0039C17.6414 28.4654 17.9706 28.0474 18.5387 28.0474C19.0772 28.0474 19.4049 28.4661 19.4049 29.0039C19.4049 29.572 19.044 29.9604 18.5387 29.9604C17.9706 29.99 17.6414 29.5417 17.6414 29.0039ZM39.7363 27.5089C39.4215 27.5019 39.1263 27.6609 38.9589 27.9276V27.5667H38.3908V30.4368H38.9582V28.8249C38.9582 28.3463 39.1971 28.0474 39.5862 28.0474C39.7175 28.0528 39.8478 28.0729 39.9745 28.1074L40.1543 27.5688C40.0172 27.5343 39.8769 27.5142 39.7356 27.5089H39.7363ZM37.5238 29.0039V27.5688H36.9557V27.9298C36.7464 27.6605 36.4504 27.5111 36.0288 27.5111C35.2218 27.5111 34.6233 28.1391 34.6233 29.0061C34.6233 29.873 35.221 30.5011 36.0288 30.5011C36.4475 30.5011 36.7464 30.3516 36.9557 30.0824V30.4433H37.5238V29.0039ZM35.2218 29.0039C35.2218 28.4654 35.5509 28.0474 36.119 28.0474C36.6576 28.0474 36.9853 28.4661 36.9853 29.0039C36.9853 29.572 36.6244 29.9604 36.119 29.9604C35.5509 29.99 35.2218 29.5417 35.2218 29.0039ZM43.2944 29.0039V26.4326H42.7263V27.9276C42.517 27.6583 42.221 27.5089 41.7994 27.5089C40.9924 27.5089 40.394 28.1369 40.394 29.0039C40.394 29.8709 40.9917 30.4989 41.7994 30.4989C42.2181 30.4989 42.517 30.3495 42.7263 30.0802V30.4412H43.2944V29.0039ZM40.9924 29.0039C40.9924 28.4654 41.3216 28.0474 41.8897 28.0474C42.4282 28.0474 42.7559 28.4661 42.7559 29.0039C42.7559 29.572 42.395 29.9604 41.8897 29.9604C41.3208 29.9907 40.9917 29.5424 40.9917 29.0039H40.9924Z" fill="white"/>
<path d="M32.7697 5.8031H22.395V22.7251H32.7697V5.8031Z" fill="#FF5F00"/>
<path d="M23.4412 14.2641C23.4419 10.966 24.9506 7.84939 27.537 5.80306C23.1244 2.33366 16.7864 2.83797 12.9779 6.96152C9.16946 11.0851 9.16946 17.4431 12.9779 21.5666C16.7864 25.6902 23.1244 26.1945 27.537 22.7251C24.9506 20.6788 23.4419 17.5621 23.4412 14.2641Z" fill="#EB001B"/>
<path d="M44.9683 14.2641C44.9713 18.3822 42.622 22.1402 38.9187 23.9412C35.2155 25.7423 30.8088 25.2701 27.5713 22.7252C30.1584 20.6793 31.6673 17.5624 31.6673 14.2641C31.6673 10.9659 30.1584 7.84894 27.5713 5.80312C30.8088 3.25821 35.2155 2.78596 38.9187 4.58704C42.622 6.38812 44.9713 10.1461 44.9683 14.2641Z" fill="#F79E1B"/>
</svg>
