<svg width="135" height="24" viewBox="0 0 135 24" fill="none" xmlns="http://www.w3.org/2000/svg">
<path d="M19.1731 2.26758H1.12254C0.51637 2.26758 0 2.78394 0 3.41257V5.4556C0 6.08423 0.51637 6.6006 1.12254 6.6006H19.1731C19.8017 6.6006 20.2956 6.08423 20.3181 5.4556V3.43502C20.3181 2.78394 19.8017 2.26758 19.1731 2.26758ZM19.1731 13.6053H1.12254C0.830683 13.6053 0.538821 13.7175 0.336763 13.942C0.112254 14.1666 0 14.436 0 14.7503V16.7933C0 17.4219 0.51637 17.9383 1.12254 17.9383H19.1731C19.8017 17.9383 20.2956 17.4444 20.3181 16.7933V14.7503C20.2956 14.0992 19.8017 13.6053 19.1731 13.6053ZM11.2928 19.2629H1.12254C0.830683 19.2629 0.538821 19.3752 0.336763 19.5997C0.134705 19.8242 0 20.0936 0 20.4079V22.4509C0 23.0796 0.51637 23.5959 1.12254 23.5959H11.2703C11.899 23.5959 12.3929 23.0796 12.3929 22.4734V20.4303C12.4153 19.7568 11.9214 19.2629 11.2928 19.2629ZM20.3181 7.9252H1.12254C0.830683 7.9252 0.538821 8.03745 0.336763 8.26196C0.134705 8.48647 0 8.75588 0 9.0702V11.1132C0 11.7419 0.51637 12.2582 1.12254 12.2582H20.2956C20.9242 12.2582 21.4181 11.7419 21.4181 11.1132V9.0702C21.4406 8.46402 20.9242 7.94765 20.3181 7.9252Z" fill="#2DBDEF"/>
<path d="M41.3096 6.84752C40.7483 6.2638 40.0972 5.81478 39.3564 5.50047C38.6155 5.18616 37.8297 5.029 37.0215 5.029C36.2357 5.00655 35.4724 5.18616 34.7539 5.52292C34.2825 5.74743 33.8559 6.06174 33.4967 6.4434V6.08419C33.4967 5.90459 33.4293 5.72498 33.3171 5.59027C33.2048 5.45556 33.0252 5.36576 32.8232 5.36576H30.3311C30.1515 5.36576 29.9719 5.43311 29.8596 5.59027C29.7249 5.72498 29.6576 5.90459 29.68 6.08419V22.8775C29.68 23.0571 29.7474 23.2367 29.8596 23.3714C29.9943 23.5061 30.1515 23.5734 30.3311 23.5734H32.8905C33.0701 23.5734 33.2273 23.5061 33.362 23.3714C33.4967 23.2591 33.5865 23.0795 33.564 22.8775V17.13C33.9233 17.5341 34.3947 17.826 34.9111 18.0056C35.5846 18.2526 36.2806 18.3873 36.999 18.3873C37.8073 18.3873 38.6155 18.2301 39.3564 17.9158C40.0972 17.6015 40.7708 17.1525 41.332 16.5688C41.9158 15.9626 42.3648 15.2442 42.6791 14.4584C43.0383 13.5828 43.1955 12.6399 43.173 11.6969C43.1955 10.754 43.0159 9.81103 42.6791 8.913C42.3423 8.17212 41.8933 7.4537 41.3096 6.84752ZM39.0196 12.9317C38.8849 13.2909 38.6828 13.6052 38.4134 13.8971C37.8971 14.4584 37.1562 14.7727 36.3929 14.7727C36.0112 14.7727 35.6295 14.7053 35.2703 14.5257C34.9335 14.3686 34.6192 14.1665 34.3498 13.8971C34.0804 13.6277 33.8784 13.2909 33.7436 12.9317C33.4518 12.1684 33.4518 11.3377 33.7436 10.5744C33.8784 10.2152 34.1029 9.90084 34.3498 9.63143C34.6192 9.36202 34.9335 9.13751 35.2703 8.98036C35.6295 8.8232 36.0112 8.73339 36.3929 8.73339C36.797 8.73339 37.1562 8.80075 37.5378 8.98036C37.8746 9.13751 38.1889 9.33957 38.4359 9.60898C38.7053 9.87839 38.8849 10.1927 39.0421 10.5519C39.3115 11.3377 39.289 12.1684 39.0196 12.9317ZM56.8905 5.38821H54.3536C54.174 5.38821 53.9943 5.45556 53.8821 5.59027C53.7474 5.72498 53.68 5.90458 53.68 6.10664V6.42096C53.3657 6.03929 52.9616 5.74742 52.535 5.54537C51.8391 5.2086 51.0757 5.05145 50.3124 5.05145C48.6735 5.05145 47.1244 5.70253 45.9569 6.84752C45.3508 7.4537 44.8793 8.17212 44.565 8.9579C44.2058 9.83349 44.0262 10.7764 44.0486 11.7418C44.0262 12.6847 44.2058 13.6277 44.565 14.5257C44.9017 15.3115 45.3508 16.0299 45.9569 16.6361C47.1019 17.8036 48.6735 18.4546 50.2899 18.4546C51.0533 18.4771 51.8166 18.2975 52.5126 17.9607C52.9392 17.7362 53.3657 17.4443 53.68 17.0851V17.4219C53.68 17.6015 53.7474 17.7811 53.8821 17.9158C54.0168 18.0281 54.174 18.1179 54.3536 18.1179H56.8905C57.0701 18.1179 57.2497 18.0505 57.362 17.9158C57.4967 17.7811 57.564 17.6015 57.564 17.4219V6.12909C57.564 5.94948 57.4967 5.76988 57.3844 5.63517C57.2497 5.47802 57.0701 5.38821 56.8905 5.38821ZM53.4555 12.9317C53.3208 13.2909 53.1188 13.6052 52.8494 13.8971C52.5799 14.1665 52.2881 14.391 51.9513 14.5482C51.2329 14.8849 50.4022 14.8849 49.6838 14.5482C49.347 14.391 49.0327 14.1665 48.7633 13.8971C48.4939 13.6277 48.2918 13.2909 48.1571 12.9317C47.8877 12.1684 47.8877 11.3377 48.1571 10.5744C48.2918 10.2152 48.4939 9.92329 48.7633 9.63143C49.0327 9.36202 49.3246 9.13751 49.6838 8.98036C50.4022 8.64359 51.2329 8.64359 51.9289 8.98036C52.2656 9.13751 52.5799 9.33957 52.8269 9.60898C53.0739 9.87839 53.2759 10.1927 53.4331 10.5519C53.7474 11.3377 53.7474 12.1684 53.4555 12.9317ZM82.1702 11.405C81.811 11.0907 81.3844 10.8213 80.9354 10.6417C80.4639 10.4397 79.9476 10.305 79.4537 10.1927L77.5229 9.81103C77.029 9.72123 76.6697 9.58653 76.4901 9.42937C76.333 9.31712 76.2207 9.13751 76.2207 8.93545C76.2207 8.73339 76.333 8.55379 76.5799 8.39663C76.9167 8.21702 77.2759 8.12722 77.6576 8.14967C78.1515 8.14967 78.6454 8.26193 79.0944 8.44154C79.5435 8.64359 79.97 8.84565 80.3741 9.11506C80.9354 9.47428 81.4293 9.40692 81.7661 9.00281L82.6866 7.94761C82.8662 7.76801 82.956 7.5435 82.9784 7.29654C82.956 7.02713 82.8213 6.80262 82.6192 6.62301C82.2376 6.28625 81.6089 5.92703 80.7783 5.56782C79.9476 5.2086 78.8924 5.029 77.6576 5.029C76.8942 5.00655 76.1534 5.1188 75.4349 5.34331C74.8288 5.54537 74.245 5.83723 73.7287 6.21889C73.2572 6.57811 72.898 7.02712 72.6286 7.56595C72.3816 8.08232 72.2469 8.64359 72.2469 9.20486C72.2469 10.2601 72.5612 11.1132 73.1899 11.7418C73.8185 12.3704 74.6492 12.797 75.6819 12.9991L77.7025 13.4481C78.1291 13.5154 78.5781 13.6501 78.9822 13.8522C79.2067 13.942 79.3414 14.1665 79.3414 14.4135C79.3414 14.638 79.2291 14.84 78.9822 15.0196C78.7352 15.1993 78.3311 15.3115 77.7923 15.3115C77.2535 15.3115 76.6922 15.1993 76.1983 14.9523C75.7268 14.7278 75.3002 14.4359 74.8961 14.0992C74.7165 13.9645 74.5369 13.8522 74.3124 13.7624C74.0879 13.695 73.796 13.7624 73.5042 14.0094L72.4041 14.84C72.0898 15.0645 71.9326 15.4462 72.0224 15.8054C72.0898 16.1871 72.3816 16.5463 72.9429 16.9729C74.3348 17.9158 75.9962 18.4097 77.68 18.3648C78.4658 18.3648 79.2516 18.275 79.9925 18.0505C80.6436 17.8485 81.2497 17.5566 81.7885 17.1525C82.2825 16.7933 82.6866 16.3218 82.956 15.7605C83.2254 15.2217 83.3601 14.638 83.3601 14.0318C83.3826 13.493 83.2703 12.9542 83.0458 12.4602C82.8213 12.101 82.5294 11.7194 82.1702 11.405ZM93.2609 14.4808C93.1487 14.2788 92.9466 14.1441 92.6997 14.0992C92.4752 14.0992 92.2282 14.1665 92.0486 14.3012C91.7343 14.5033 91.3751 14.6155 91.0159 14.638C90.9036 14.638 90.7689 14.6155 90.6566 14.5931C90.5219 14.5706 90.4097 14.5033 90.3199 14.4135C90.2076 14.3012 90.1178 14.1665 90.0505 14.0318C89.9607 13.8073 89.9158 13.5828 89.9382 13.3583V8.75585H93.216C93.4181 8.75585 93.5977 8.66604 93.7324 8.53134C93.8671 8.39663 93.9569 8.23947 93.9569 8.03742V6.08419C93.9569 5.88213 93.8896 5.70252 93.7324 5.59027C93.5977 5.45556 93.4181 5.38821 93.2385 5.38821H89.9382V2.24509C89.9382 2.06548 89.8709 1.86342 89.7362 1.75117C89.6015 1.63891 89.4443 1.57156 89.2647 1.54911H86.7053C86.5257 1.54911 86.3461 1.61646 86.2114 1.75117C86.0767 1.88587 85.9869 2.06548 85.9869 2.24509V5.38821H84.5276C84.3479 5.38821 84.1683 5.45557 84.0336 5.61272C83.9214 5.74743 83.854 5.92703 83.854 6.10664V8.05987C83.854 8.23948 83.9214 8.41908 84.0336 8.55379C84.1459 8.71095 84.3255 8.7783 84.5276 8.7783H85.9869V14.2563C85.9644 14.9074 86.0991 15.5585 86.3685 16.1422C86.6155 16.6361 86.9298 17.0627 87.3564 17.4219C87.7605 17.7587 88.232 18.0056 88.7483 18.1403C89.2647 18.2975 89.8035 18.3873 90.3423 18.3873C91.0383 18.3873 91.7567 18.275 92.4303 18.0505C93.0589 17.8485 93.6202 17.4892 94.0692 17.0178C94.361 16.7259 94.3835 16.2544 94.159 15.9177L93.2609 14.4808ZM107.136 5.38821H104.599C104.419 5.38821 104.262 5.45556 104.127 5.59027C103.992 5.72498 103.925 5.90458 103.925 6.10664V6.42096C103.611 6.03929 103.229 5.74742 102.78 5.54537C102.084 5.2086 101.321 5.05145 100.557 5.05145C98.9186 5.05145 97.3695 5.70253 96.202 6.84752C95.5958 7.4537 95.1244 8.17212 94.8101 8.9579C94.4508 9.83349 94.2712 10.7764 94.2937 11.7194C94.2712 12.6623 94.4508 13.6052 94.8101 14.5033C95.1244 15.2891 95.6183 16.0075 96.202 16.6137C97.347 17.7811 98.8961 18.4322 100.535 18.4322C101.298 18.4546 102.062 18.275 102.758 17.9607C103.207 17.7362 103.611 17.4443 103.925 17.0851V17.4219C103.925 17.6015 103.992 17.7811 104.127 17.8934C104.262 18.0281 104.419 18.0954 104.599 18.0954H107.136C107.517 18.0954 107.809 17.8036 107.809 17.4219V6.12909C107.809 5.94948 107.742 5.76988 107.63 5.63517C107.517 5.47802 107.338 5.38821 107.136 5.38821ZM103.723 12.9542C103.588 13.3134 103.386 13.6277 103.117 13.9196C102.847 14.189 102.556 14.4135 102.219 14.5706C101.86 14.7278 101.478 14.8176 101.074 14.8176C100.67 14.8176 100.311 14.7278 99.9513 14.5706C99.6146 14.4135 99.3002 14.189 99.0308 13.9196C98.7614 13.6501 98.5594 13.3134 98.4471 12.9542C98.1777 12.1908 98.1777 11.3601 98.4471 10.5968C98.5818 10.2376 98.7839 9.92329 99.0308 9.65388C99.3002 9.38447 99.6146 9.15996 99.9513 9.00281C100.311 8.84565 100.692 8.75585 101.074 8.75585C101.456 8.75585 101.837 8.8232 102.219 9.00281C102.556 9.15996 102.847 9.36202 103.117 9.63143C103.386 9.90084 103.588 10.2152 103.723 10.5744C104.015 11.3152 104.015 12.1908 103.723 12.9542ZM121.055 14.3237L119.596 13.2011C119.326 12.9766 119.057 12.9093 118.833 12.9991C118.63 13.0889 118.451 13.2236 118.294 13.3807C117.979 13.7624 117.598 14.0992 117.194 14.391C116.745 14.638 116.273 14.7727 115.779 14.7278C115.195 14.7278 114.657 14.5706 114.185 14.2339C113.714 13.8971 113.354 13.4481 113.175 12.8868C113.04 12.5051 112.973 12.1235 112.973 11.7418C112.973 11.3377 113.04 10.956 113.175 10.5519C113.31 10.1927 113.489 9.87839 113.759 9.60898C114.028 9.33957 114.32 9.11506 114.657 8.98036C115.016 8.8232 115.398 8.73339 115.802 8.73339C116.296 8.71094 116.789 8.84565 117.216 9.09261C117.643 9.36202 118.002 9.69878 118.316 10.1029C118.451 10.2601 118.63 10.3948 118.833 10.4846C119.057 10.5744 119.326 10.507 119.596 10.2825L121.055 9.18241C121.235 9.07016 121.369 8.89055 121.437 8.68849C121.527 8.46398 121.504 8.21702 121.369 8.01496C120.808 7.13938 120.045 6.42095 119.124 5.90458C118.159 5.36576 117.014 5.0739 115.734 5.0739C114.836 5.0739 113.938 5.25351 113.085 5.59027C112.277 5.92703 111.558 6.3985 110.952 7.00467C110.346 7.61085 109.852 8.32928 109.515 9.13751C108.819 10.8213 108.819 12.7072 109.515 14.391C109.852 15.1768 110.324 15.9177 110.952 16.5014C112.232 17.7587 113.938 18.4322 115.734 18.4322C117.014 18.4322 118.159 18.1403 119.124 17.6015C120.045 17.0851 120.831 16.3667 121.392 15.4687C121.504 15.2666 121.527 15.0196 121.459 14.8176C121.369 14.638 121.235 14.4584 121.055 14.3237ZM134.571 16.9504L130.552 11.0683L133.987 6.53321C134.144 6.33115 134.211 6.03929 134.122 5.79233C134.054 5.61272 133.897 5.43311 133.47 5.43311H130.754C130.597 5.43311 130.44 5.47801 130.305 5.54537C130.125 5.63517 129.991 5.76988 129.901 5.92703L127.162 9.76614H126.511V0.695979C126.511 0.516372 126.443 0.336762 126.309 0.202057C126.174 0.0673513 126.017 0 125.837 0H123.3C123.121 0 122.941 0.0673513 122.806 0.202057C122.672 0.336762 122.604 0.493921 122.604 0.695979V17.4219C122.604 17.6239 122.672 17.7811 122.806 17.9158C122.941 18.0505 123.121 18.1179 123.3 18.1179H125.837C126.017 18.1179 126.196 18.0505 126.309 17.9158C126.443 17.7811 126.511 17.6015 126.511 17.4219V12.9991H127.229L130.215 17.579C130.395 17.9158 130.731 18.1179 131.091 18.1179H133.942C134.369 18.1179 134.548 17.9158 134.638 17.7362C134.75 17.4443 134.728 17.1525 134.571 16.9504ZM71.304 5.41067H68.4527C68.2282 5.41067 68.0262 5.47802 67.869 5.63517C67.7343 5.76988 67.6445 5.92703 67.5996 6.10664L65.4892 13.9196H64.9728L62.7277 6.10664C62.6828 5.94948 62.6155 5.79233 62.5032 5.63517C62.3685 5.47802 62.1889 5.38821 61.9869 5.38821H59.0907C58.709 5.38821 58.4845 5.50046 58.3723 5.76987C58.3049 5.99438 58.3049 6.24134 58.3723 6.46585L61.9644 17.4668C62.0318 17.6239 62.0991 17.8036 62.2338 17.9158C62.3685 18.0505 62.5706 18.1179 62.7726 18.1179H64.2993L64.1646 18.4771L63.8278 19.4874C63.7156 19.8017 63.536 20.0711 63.2666 20.2732C63.0196 20.4528 62.7277 20.565 62.4134 20.5426C62.144 20.5426 61.8971 20.4752 61.6501 20.3854C61.4031 20.2732 61.1786 20.1384 60.9766 19.9813C60.797 19.8466 60.5725 19.7792 60.3255 19.7792H60.303C60.0336 19.8017 59.7867 19.9364 59.652 20.1833L58.7539 21.5079C58.3947 22.0917 58.5968 22.4509 58.8213 22.6529C59.3152 23.102 59.8765 23.4387 60.5051 23.6408C61.2011 23.8877 61.9195 24 62.6379 24C63.9401 24 65.0177 23.6408 65.8484 22.9448C66.7016 22.1815 67.3526 21.1936 67.6669 20.0711L71.8428 6.46585C71.9326 6.21889 71.9551 5.97194 71.8653 5.74743C71.8428 5.59027 71.6856 5.38821 71.304 5.41067Z" fill="white"/>
</svg>
