<svg width="22" height="22" viewBox="0 0 22 22" fill="none" xmlns="http://www.w3.org/2000/svg">
<path d="M10.9982 1.00009C7.99043 1.00009 6.04018 3.01908 3.73371 3.75499C2.79589 4.05422 2.32697 4.20383 2.1372 4.41474C1.94743 4.62565 1.89186 4.93384 1.78072 5.55023C0.591434 12.1461 3.1909 18.2441 9.39029 20.6176C10.0564 20.8726 10.3894 21.0001 11.0015 21.0001C11.6135 21.0001 11.9466 20.8726 12.6126 20.6176C18.8116 18.244 21.4086 12.1461 20.219 5.55022C20.1078 4.93373 20.0522 4.62549 19.8624 4.41458C19.6726 4.20367 19.2037 4.05414 18.2659 3.75508C15.9585 3.01924 14.0061 1.00009 10.9982 1.00009Z" stroke="#2A353D" stroke-width="1.5" stroke-linecap="round" stroke-linejoin="round"/>
<path d="M11 6.00009L11 8.00009" stroke="#2A353D" stroke-width="1.5" stroke-linecap="round"/>
</svg>
