<svg width="55" height="34" viewBox="0 0 55 34" fill="none" xmlns="http://www.w3.org/2000/svg">
<g clip-path="url(#clip0_1697_11028)">
<path d="M51.8752 0H3.51003C1.91532 0 0.622559 1.29277 0.622559 2.88747V31.1125C0.622559 32.7072 1.91532 34 3.51003 34H51.8752C53.4699 34 54.7627 32.7072 54.7627 31.1125V2.88747C54.7627 1.29277 53.4699 0 51.8752 0Z" fill="#00425F"/>
<path d="M11.9025 23.8767C16.4978 23.8767 20.223 20.1515 20.223 15.5562C20.223 10.9609 16.4978 7.23572 11.9025 7.23572C7.30725 7.23572 3.58203 10.9609 3.58203 15.5562C3.58203 20.1515 7.30725 23.8767 11.9025 23.8767Z" fill="#EE312A"/>
<path d="M11.9026 19.1203C10.0416 14.9016 8.6769 10.9608 8.6769 10.9608H5.82373C5.82373 10.9608 7.56032 16.0191 10.786 22.3447H13.0191C16.2448 16.0191 17.9814 10.9608 17.9814 10.9608H15.1282C15.1282 10.9608 13.7635 14.9016 11.9026 19.1203Z" fill="white"/>
<path d="M51.7339 18.5957H46.1518C46.1518 18.5957 46.2758 20.4568 48.7568 20.4568C49.9972 20.4568 51.2377 20.0843 51.2377 20.0843L51.4859 22.069C51.4859 22.069 50.2453 22.5652 48.5087 22.5652C46.0278 22.5652 43.7949 21.3247 43.7949 17.8514C43.7949 15.1224 45.5315 13.3857 48.0125 13.3857C51.7339 13.3857 51.982 17.1072 51.7339 18.5957ZM47.8885 15.1224C46.2758 15.1224 46.1518 16.859 46.1518 16.859H49.6251C49.6251 16.859 49.5011 15.1224 47.8885 15.1224Z" fill="white"/>
<path d="M32.5532 15.6463L32.9253 13.6616C32.9253 13.6616 30.0514 12.7895 27.7153 14.4059V22.3447H30.1964L30.1962 15.8944C31.1885 15.1501 32.5532 15.6463 32.5532 15.6463Z" fill="white"/>
<path d="M25.7736 18.5957H20.1914C20.1914 18.5957 20.3155 20.4568 22.7964 20.4568C24.0369 20.4568 25.2773 20.0843 25.2773 20.0843L25.5254 22.069C25.5254 22.069 24.285 22.5652 22.5483 22.5652C20.0673 22.5652 17.8345 21.3247 17.8345 17.8514C17.8345 15.1224 19.5712 13.3857 22.0521 13.3857C25.7736 13.3857 26.0216 17.1072 25.7736 18.5957ZM21.928 15.1224C20.3155 15.1224 20.1914 16.859 20.1914 16.859H23.6647C23.6647 16.859 23.5407 15.1224 21.928 15.1224Z" fill="white"/>
<path d="M38.5783 19.3694C37.8071 17.4939 37.185 15.5605 36.7176 13.5872L34.2368 13.5875C34.2368 13.5875 35.4773 18.3767 37.5862 22.3452H39.5704C41.6793 18.3767 42.9198 13.5884 42.9198 13.5884H40.439C39.9715 15.5613 39.3494 17.4943 38.5783 19.3694Z" fill="white"/>
</g>
<defs>
<clipPath id="clip0_1697_11028">
<rect width="54.1401" height="34" fill="white" transform="translate(0.622559)"/>
</clipPath>
</defs>
</svg>
