<svg width="55" height="34" viewBox="0 0 55 34" fill="none" xmlns="http://www.w3.org/2000/svg">
<path d="M20.8452 24.1268L23.2534 9.99524H27.1051L24.6952 24.1268H20.8452Z" fill="#0E4595"/>
<path d="M38.6106 10.3001C37.8476 10.0138 36.6518 9.70654 35.1584 9.70654C31.3524 9.70654 28.6715 11.6232 28.6486 14.3701C28.6272 16.4006 30.5626 17.5334 32.0237 18.2094C33.523 18.9021 34.027 19.3438 34.0198 19.9623C34.0102 20.9096 32.8225 21.3422 31.7153 21.3422C30.1737 21.3422 29.3547 21.128 28.0897 20.6005L27.5933 20.3759L27.0527 23.5393C27.9524 23.9339 29.6159 24.2756 31.3434 24.2933C35.3923 24.2933 38.0208 22.3986 38.0507 19.4652C38.0651 17.8576 37.0389 16.6343 34.8166 15.6257C33.4704 14.972 32.6458 14.5358 32.6546 13.8738C32.6546 13.2864 33.3525 12.6583 34.8605 12.6583C36.12 12.6388 37.0325 12.9134 37.7434 13.1997L38.0885 13.3628L38.6106 10.3001Z" fill="#0E4595"/>
<path d="M48.5227 9.99524H45.5464C44.6244 9.99524 43.9343 10.2469 43.5295 11.1671L37.8091 24.1176H41.8538C41.8538 24.1176 42.515 22.3764 42.6646 21.994C43.1066 21.994 47.0359 22.0001 47.5975 22.0001C47.7128 22.4948 48.0662 24.1176 48.0662 24.1176H51.6403L48.5227 9.99524ZM43.8004 19.1202C44.1191 18.306 45.3351 15.1699 45.3351 15.1699C45.3125 15.2075 45.6514 14.3517 45.8458 13.8211L46.1062 15.0395C46.1062 15.0395 46.8437 18.4127 46.9978 19.12H43.8004V19.1202Z" fill="#0E4595"/>
<path d="M4.0746 9.99524L4.02539 10.2892C5.54802 10.6578 6.90796 11.1913 8.09859 11.8549L11.5163 24.1041L15.5916 24.0996L21.6556 9.99524H17.5752L13.8043 19.6319L13.4026 17.6734C13.3838 17.6129 13.3634 17.5523 13.3424 17.4915L12.0315 11.1883C11.7984 10.2935 11.1222 10.0264 10.2856 9.99524H4.0746Z" fill="#0E4595"/>
</svg>
